<?xml version="1.0" encoding="UTF-8"?>
<svg width="41px" height="41px" viewBox="0 0 41 41" version="1.1" xmlns="http://www.w3.org/2000/svg" xmlns:xlink="http://www.w3.org/1999/xlink">
    <title>编组</title>
    <g id="页面-1" stroke="none" stroke-width="1" fill="none" fill-rule="evenodd">
        <g id="编组" fill-rule="nonzero">
            <path d="M40.1023,20.158 C40.1023,31.137 31.1843,40.035 20.1883,40.035 C9.1893,40.035 0.2733,31.137 0.2733,20.158 C0.2733,9.18 9.1893,0.281 20.1883,0.281 C31.1843,0.281 40.1023,9.18 40.1023,20.158" id="Fill-963" fill="#0085C0"></path>
            <path d="M1.909,20.158 C1.909,10.095 10.108,1.912 20.186,1.912 C30.264,1.912 38.466,10.095 38.466,20.158 C38.466,30.218 30.264,38.405 20.186,38.405 C10.108,38.405 1.909,30.218 1.909,20.158 M0,20.158 C0,31.271 9.056,40.316 20.186,40.316 C31.317,40.316 40.376,31.271 40.376,20.158 C40.376,9.042 31.317,0 20.186,0 C9.056,0 0,9.042 0,20.158" id="Fill-964" fill="#EFB428"></path>
            <path d="M3.8143,20.1624 C3.8143,11.0844 11.1833,3.6984 20.2403,3.6984 C29.2993,3.6984 36.6703,11.0844 36.6703,20.1624 C36.6703,29.2434 29.2993,36.6274 20.2403,36.6274 C11.1833,36.6274 3.8143,29.2434 3.8143,20.1624 M2.6193,20.1624 C2.6193,29.8984 10.5243,37.8224 20.2403,37.8224 C29.9593,37.8224 37.8653,29.8984 37.8653,20.1624 C37.8653,10.4254 29.9593,2.5024 20.2403,2.5024 C10.5243,2.5024 2.6193,10.4254 2.6193,20.1624" id="Fill-965" fill="#EFB428"></path>
            <path d="M10.3934,10.7074 C10.3934,10.7074 11.2714,8.7094 14.0774,8.0284 C14.0774,8.0284 15.3184,6.1444 18.7634,5.6644 L20.1294,4.5794 L21.3714,5.4224 L23.5734,6.1844 L24.8174,6.7844 L26.1004,7.9874 C26.1004,7.9874 28.6184,8.5294 29.7784,10.6924 L31.3894,11.4734 L32.3914,12.8354 L33.2734,14.1994 L34.6344,15.1604 L34.9564,15.3634 L34.3944,16.6034 L34.2334,17.9654 L34.2734,19.3674 L33.8724,20.8114 L33.5384,21.9654 C33.5384,21.9654 33.9124,24.3544 32.1104,26.3014 L31.7484,27.8244 L30.4674,30.0684 L29.5464,31.4714 L29.4244,32.8344 L27.3004,32.7944 L25.2564,33.3564 L23.4514,33.5154 L22.3724,33.3964 C22.3724,33.3964 20.3414,34.5714 17.8434,33.3964 L15.8404,33.4744 L14.2364,33.0334 L12.2734,32.5144 L10.9104,32.8344 L10.5494,31.0704 L9.5894,29.7884 L8.5044,27.7444 L8.1814,26.4714 C8.1814,26.4714 6.4274,24.6694 6.7044,22.0524 L6.0204,20.0904 L6.1014,17.8044 L5.4184,15.3634 L7.1844,13.9174 L8.7474,11.7944 L10.3934,10.7074 Z" id="Fill-966" fill="#FFFFFE"></path>
            <polygon id="Fill-967" fill="#C74B8A" points="20.1883 16.1024 18.7143 15.5324 17.0323 15.6234 16.0683 16.1024 15.2903 16.9144 14.7473 17.9354 14.7173 18.8974 14.6873 19.9204 15.1673 21.1224 15.7673 22.0524 16.8813 23.0164 17.8433 23.9474 18.9263 24.6384 20.1883 25.4194 21.9013 24.1864 23.6743 22.8644 25.2383 21.1514 25.6893 19.1684 25.4783 17.7264 24.8173 16.4044 23.2843 15.5904 21.9013 15.5324"></polygon>
            <polygon id="Fill-968" fill="#1A1919" points="18.0916 13.4442 17.3636 13.6972 16.4116 10.9552 17.1396 10.7012"></polygon>
            <polygon id="Fill-969" fill="#1A1919" points="19.2762 13.2122 18.5152 13.3362 18.0532 10.4682 18.8122 10.3472"></polygon>
            <polygon id="Fill-970" fill="#1A1919" points="20.5594 13.1634 19.7884 13.1674 19.7794 8.6904 20.5454 8.6894"></polygon>
            <polygon id="Fill-971" fill="#1A1919" points="21.8318 13.2967 21.0718 13.1707 21.5448 10.3057 22.3058 10.4307"></polygon>
            <polygon id="Fill-972" fill="#1A1919" points="23.0125 13.6375 22.2835 13.3875 23.2305 10.6425 23.9605 10.8935"></polygon>
            <polygon id="Fill-973" fill="#1A1919" points="25.9266 16.0955 25.4576 15.4845 27.7596 13.7145 28.2296 14.3255"></polygon>
            <polygon id="Fill-974" fill="#1A1919" points="26.5447 17.1473 26.1787 16.4683 28.7337 15.0903 29.0997 15.7683"></polygon>
            <polygon id="Fill-975" fill="#1A1919" points="26.9568 18.3597 26.7218 17.6247 31.0048 16.2517 31.2398 16.9867"></polygon>
            <polygon id="Fill-976" fill="#1A1919" points="27.1883 19.5609 27.0843 18.7959 29.9613 18.4099 30.0633 19.1719"></polygon>
            <polygon id="Fill-977" fill="#1A1919" points="27.1639 20.8494 27.1629 20.0784 30.0629 20.0634 30.0669 20.8354"></polygon>
            <polygon id="Fill-978" fill="#1A1919" points="27.2254 29.2269 26.5994 29.6769 23.9694 26.0329 24.5944 25.5799"></polygon>
            <polygon id="Fill-979" fill="#1A1919" points="23.2674 29.5394 22.5294 29.7584 21.7044 26.9754 22.4444 26.7574"></polygon>
            <polygon id="Fill-980" fill="#1A1919" points="24.8348 28.9237 24.1378 29.2557 22.8838 26.6377 23.5788 26.3057"></polygon>
            <polygon id="Fill-981" fill="#1A1919" points="27.6297 26.722 27.1037 27.282 24.9837 25.298 25.5107 24.734"></polygon>
            <polygon id="Fill-982" fill="#1A1919" points="28.6277 25.3836 28.1807 26.0116 25.8157 24.3256 26.2637 23.6996"></polygon>
            <polygon id="Fill-983" fill="#1A1919" points="13.7254 29.6395 13.1014 29.1855 15.7354 25.5555 16.3584 26.0105"></polygon>
            <polygon id="Fill-984" fill="#1A1919" points="16.1824 29.2318 15.4894 28.8908 16.7704 26.2868 17.4614 26.6278"></polygon>
            <polygon id="Fill-985" fill="#1A1919" points="17.8602 29.8192 17.1162 29.6162 17.8792 26.8162 18.6242 27.0182"></polygon>
            <polygon id="Fill-986" fill="#1A1919" points="13.2967 27.2772 12.7587 26.7252 14.8397 24.6992 15.3797 25.2522"></polygon>
            <polygon id="Fill-987" fill="#1A1919" points="12.16 25.9998 11.721 25.3648 14.106 23.7098 14.546 24.3448"></polygon>
            <polygon id="Fill-988" fill="#1A1919" points="9.1365 16.9642 9.3765 16.2332 13.6295 17.6242 13.3895 18.3582"></polygon>
            <polygon id="Fill-989" fill="#1A1919" points="14.1355 16.471 13.7695 17.147 11.2145 15.767 11.5835 15.089"></polygon>
            <polygon id="Fill-990" fill="#1A1919" points="14.9002 15.4818 14.4282 16.0958 12.1252 14.3288 12.5952 13.7158"></polygon>
            <polygon id="Fill-991" fill="#1A1919" points="10.3084 19.2069 10.4124 18.4429 13.2914 18.8429 13.1834 19.6039"></polygon>
            <polygon id="Fill-992" fill="#1A1919" points="10.2693 20.8792 10.2693 20.1082 13.1703 20.1142 13.1703 20.8832"></polygon>
            <path d="M18.8006,24.1483 C16.7016,22.8363 15.9046,21.7543 15.8966,21.7443 L15.8866,21.7343 L15.8766,21.7213 C14.9746,20.6963 14.9386,19.2413 14.9386,19.0153 L14.9386,18.9853 C14.9776,17.1783 16.2196,16.3793 16.2736,16.3463 C18.1316,15.1233 19.9296,16.2453 20.0056,16.2933 L20.1536,16.3863 L20.3096,16.3083 C21.7766,15.5853 23.0986,15.8953 23.1126,15.8983 C24.9006,16.3363 25.2786,17.9893 25.2926,18.0593 C25.3946,18.4323 25.4346,18.7843 25.4346,19.1153 C25.4346,20.5663 24.6316,21.5363 24.5896,21.5863 C23.7636,22.5793 22.2796,23.5683 22.2616,23.5783 L22.2396,23.5933 L22.2166,23.6163 C22.0996,23.7293 21.1076,24.4053 20.1546,25.0383 C19.8836,24.8603 18.8006,24.1483 18.8006,24.1483 M15.9376,15.8223 C15.8836,15.8583 14.3626,16.8153 14.3186,18.9713 C14.3146,19.0423 14.2706,20.8353 15.4126,22.1333 L15.3946,22.1053 C15.4266,22.1543 16.2546,23.2893 18.4656,24.6713 L20.1556,25.7823 L20.3286,25.6693 C20.8006,25.3553 22.3126,24.3533 22.6096,24.0943 C22.6876,24.0423 24.1886,23.0423 25.0686,21.9833 C25.1136,21.9313 26.0596,20.7993 26.0596,19.1163 C26.0596,18.7393 26.0126,18.3363 25.8976,17.9123 C25.8836,17.8443 25.4346,15.8293 23.2596,15.2943 C23.1996,15.2783 21.8056,14.9603 20.1936,15.6873 C19.6826,15.4043 17.8436,14.5683 15.9376,15.8223" id="Fill-993" fill="#1A1919"></path>
            <path d="M19.867,4.2982 C19.035,5.4302 17.683,5.6672 17.671,5.6692 C15.817,5.9972 15.193,6.5782 15.127,6.6442 C14.305,7.3582 14.142,8.1992 14.133,8.2352 L14.142,8.2022 C13.836,9.2542 14.451,10.4182 14.478,10.4662 L15.009,11.3452 L15.579,12.2382 C16.009,12.9092 15.827,13.4712 15.74,13.5702 L15.763,13.5522 L16.16,14.1472 C16.372,14.0062 16.569,13.6102 16.569,13.0992 C16.569,12.7272 16.465,12.2922 16.183,11.8522 L15.61,10.9572 L15.108,10.1282 C15.104,10.1202 14.771,9.4862 14.771,8.8342 C14.771,8.6892 14.789,8.5432 14.83,8.4002 L14.835,8.3862 L14.837,8.3702 C14.838,8.3632 14.971,7.7262 15.613,7.1692 C15.633,7.1492 16.173,6.6612 17.793,6.3752 C17.846,6.3652 19.174,6.1312 20.173,5.0402 C20.63,5.4662 21.623,6.2182 23.204,6.4742 C23.229,6.4792 24.921,6.7322 25.453,8.1582 C25.464,8.1832 25.583,8.4932 25.583,8.9322 C25.583,9.2692 25.51,9.6882 25.263,10.1112 C25.098,10.3402 24.03,11.8472 23.904,12.5882 L23.889,12.6452 C23.869,12.7512 23.833,12.9232 23.833,13.1332 C23.833,13.4612 23.923,13.8762 24.302,14.2562 C24.342,14.2932 25.034,14.9132 26.054,14.3462 L25.706,13.7182 C25.16,14.0232 24.826,13.7642 24.791,13.7342 C24.489,13.4292 24.529,13.0892 24.59,12.7942 L24.61,12.7082 C24.687,12.2612 25.416,11.1232 25.86,10.5102 L25.87,10.4972 L25.879,10.4822 C26.636,9.1912 26.141,7.9472 26.118,7.8962 C25.439,6.0752 23.396,5.7772 23.308,5.7662 C21.406,5.4572 20.445,4.2972 20.435,4.2862 L20.142,3.9252 L19.867,4.2982 Z" id="Fill-994" fill="#1A1919"></path>
            <path d="M29.6336,10.6732 L29.6686,10.6712 C28.5716,10.6972 27.6506,11.6342 27.6116,11.6742 L27.1246,12.2232 L26.2546,13.2552 C25.4896,14.1442 24.8846,13.7992 24.8176,13.7552 L24.4166,14.3482 C24.8176,14.6232 25.8326,14.8452 26.7986,13.7212 L27.6806,12.6762 L28.1246,12.1722 C28.1326,12.1652 28.8846,11.4042 29.6856,11.3862 L29.7006,11.3862 L29.7186,11.3832 C29.7246,11.3832 30.3706,11.3202 31.0976,11.7622 C31.1206,11.7772 31.7466,12.1412 32.5096,13.5982 C32.5346,13.6482 33.1606,14.8412 34.5026,15.4652 C34.2876,15.9142 33.9806,16.7472 33.9806,17.8702 C33.9806,18.1602 34.0016,18.4662 34.0476,18.7882 C34.0486,18.7962 34.0766,18.9682 34.0766,19.2302 C34.0766,19.7982 33.9456,20.7972 33.1216,21.4412 C33.0836,21.4732 32.3046,22.0972 31.2026,21.8502 C30.9286,21.7622 29.1736,21.1982 28.4316,21.3012 L28.3746,21.3082 C28.0986,21.3332 27.3656,21.4032 26.9616,22.1822 C26.7916,22.5182 26.6816,23.3212 27.4716,23.9702 L27.9266,23.4162 C27.4016,22.9862 27.5806,22.5532 27.6046,22.5032 C27.8056,22.1132 28.1436,22.0482 28.4446,22.0202 L28.5296,22.0112 C28.9786,21.9472 30.2836,22.3012 31.0046,22.5392 L31.0176,22.5452 L31.0366,22.5492 C32.4956,22.8812 33.5296,22.0352 33.5716,21.9982 C35.1036,20.7992 34.7716,18.7622 34.7546,18.6742 C34.4766,16.7652 35.2926,15.5022 35.3016,15.4892 L35.5556,15.1002 L35.1196,14.9522 C33.7836,14.4992 33.1546,13.2822 33.1486,13.2722 C32.2756,11.6052 31.5296,11.1812 31.4506,11.1392 C30.5236,10.5712 29.6686,10.6682 29.6336,10.6732" id="Fill-995" fill="#1A1919"></path>
            <path d="M26.8423,22.7188 C26.8423,22.9488 26.9293,23.9218 28.3113,24.4678 L29.2353,24.8308 L30.1953,25.2368 C30.2053,25.2418 31.1623,25.7168 31.4303,26.4738 L31.4363,26.4868 L31.4453,26.5038 C31.4463,26.5078 31.5873,26.8258 31.5873,27.3198 C31.5873,27.5028 31.5703,27.7088 31.5163,27.9308 C31.5123,27.9588 31.3613,28.6668 30.2163,29.8488 C30.1783,29.8868 29.2413,30.8558 29.0703,32.3268 C28.4513,32.2478 27.2043,32.2178 25.7703,32.9378 C25.7493,32.9488 24.2293,33.7368 22.9643,32.8918 C22.9203,32.8628 22.0833,32.3188 21.9703,31.1958 C21.9703,30.9128 21.9533,29.0668 21.6233,28.3918 L21.6003,28.3398 C21.4903,28.0868 21.1913,27.4168 20.3263,27.2748 C20.2793,27.2698 19.3683,27.1528 18.8713,28.2168 L19.5173,28.5198 C19.7803,27.9588 20.1813,27.9808 20.2263,27.9858 C20.6583,28.0538 20.8243,28.3548 20.9453,28.6318 L20.9803,28.7098 C21.1783,29.1148 21.2563,30.4658 21.2563,31.2218 L21.2563,31.2398 L21.2563,31.2558 C21.3973,32.7478 22.5293,33.4638 22.5763,33.4948 C24.1923,34.5718 26.0233,33.6148 26.1003,33.5728 C27.8243,32.7078 29.2833,33.0868 29.2973,33.0908 L29.7473,33.2128 L29.7513,32.7488 C29.7603,31.3408 30.7183,30.3598 30.7283,30.3498 C32.0373,28.9978 32.2033,28.1608 32.2193,28.0708 C32.2793,27.8008 32.3063,27.5478 32.3063,27.3198 C32.3063,26.7158 32.1433,26.3158 32.1053,26.2298 C31.7363,25.1968 30.5573,24.6138 30.5063,24.5928 L29.4943,24.1638 L28.5753,23.8018 C27.5873,23.4138 27.5583,22.8058 27.5583,22.7258 L27.5583,22.7208 L26.8443,22.6668 C26.8423,22.6748 26.8423,22.6908 26.8423,22.7188" id="Fill-996" fill="#1A1919"></path>
            <path d="M12.1259,21.9982 C12.7019,22.0732 12.7759,22.4432 12.7819,22.5162 C12.8519,22.9822 12.6179,23.2332 12.3919,23.4332 L12.3309,23.4932 C12.0029,23.8062 10.7369,24.2882 10.0189,24.5192 L9.9999,24.5252 L9.9859,24.5342 C8.6089,25.1222 8.2719,26.4162 8.2579,26.4712 C7.7259,28.3382 9.1929,29.7922 9.2579,29.8512 C10.6089,31.2302 10.6909,32.7332 10.6909,32.7492 L10.7139,33.2132 L11.1569,33.0752 C12.5009,32.6562 13.7269,33.2682 13.7389,33.2752 C15.4269,34.1102 16.2749,34.0132 16.3669,33.9982 C17.4499,33.9122 18.0839,33.3312 18.1079,33.3062 L18.0839,33.3282 C18.9549,32.6622 19.1479,31.3622 19.1569,31.3052 L19.1969,30.7322 C19.2029,30.4822 19.2139,30.1382 19.3179,29.2462 C19.4679,27.9712 20.1589,27.9812 20.2379,27.9852 L20.3069,27.2722 C20.2919,27.2722 18.8459,27.1432 18.6049,29.1592 C18.4939,30.0892 18.4879,30.4492 18.4819,30.7172 L18.4449,31.2052 C18.4449,31.2162 18.2829,32.2732 17.6469,32.7622 L17.6369,32.7732 L17.6209,32.7832 C17.6169,32.7862 17.1319,33.2182 16.2819,33.2862 C16.2579,33.2912 15.5359,33.3612 14.0629,32.6352 C14.0119,32.6082 12.8059,32.0132 11.3509,32.3002 C11.2399,31.6862 10.8849,30.4882 9.7639,29.3442 C9.7469,29.3282 8.8619,28.4462 8.8619,27.2802 C8.8619,27.0782 8.8889,26.8712 8.9499,26.6582 C8.9649,26.6062 9.2269,25.6442 10.2619,25.1942 C10.5309,25.1072 12.2839,24.5282 12.8269,24.0062 L12.8689,23.9702 C13.0559,23.8042 13.5169,23.3962 13.5169,22.6892 C13.5169,22.6142 13.5079,22.5292 13.4959,22.4432 C13.4639,22.0902 13.1619,21.4082 12.2199,21.2872 L12.1259,21.9982 Z" id="Fill-997" fill="#1A1919"></path>
            <path d="M10.4275,10.6844 C8.4855,10.7744 7.5785,12.6294 7.5395,12.7074 C6.6635,14.4284 5.2635,14.9854 5.2505,14.9914 L4.8175,15.1584 L5.0895,15.5344 C5.9115,16.6734 5.7225,18.0304 5.7215,18.0454 C5.4685,19.9114 5.8295,20.6834 5.8715,20.7654 C6.2985,21.7674 7.0495,22.1804 7.0815,22.1984 L7.0515,22.1804 C7.9595,22.7954 9.2565,22.5644 9.3105,22.5544 L10.4245,22.2884 L11.3345,22.0454 C12.4275,21.7544 12.7505,22.3964 12.7815,22.4714 L13.4435,22.1924 C13.2575,21.7414 12.5385,20.9854 11.1535,21.3544 L10.2385,21.5984 L9.1815,21.8504 C9.1715,21.8514 8.1165,22.0354 7.4525,21.5874 L7.4415,21.5784 L7.4245,21.5704 C7.4175,21.5664 6.8545,21.2434 6.5195,20.4604 C6.5115,20.4414 6.3485,20.0844 6.3485,19.2564 C6.3485,18.9504 6.3725,18.5824 6.4315,18.1474 C6.4345,18.1254 6.4615,17.9464 6.4615,17.6674 C6.4615,17.1544 6.3485,16.3074 5.8775,15.4764 C6.4215,15.1754 7.4495,14.4604 8.1815,13.0244 C8.1935,13.0014 8.9515,11.4694 10.4725,11.4014 C10.5225,11.3944 11.5195,11.3384 12.2735,12.1754 C12.4415,12.4024 13.5495,13.8824 14.2155,14.2284 L14.2645,14.2574 C14.5045,14.3964 15.1435,14.7634 15.9255,14.3614 C15.9655,14.3394 16.7675,13.8924 16.5385,12.7394 L15.8375,12.8794 C15.9565,13.4864 15.6235,13.7074 15.5835,13.7304 C15.1955,13.9304 14.8835,13.7874 14.6205,13.6364 L14.5455,13.5964 C14.1465,13.3864 13.2835,12.3394 12.8365,11.7304 L12.8265,11.7164 L12.8145,11.7054 C11.8175,10.5874 10.4825,10.6794 10.4275,10.6844" id="Fill-998" fill="#1A1919"></path>
            <path d="M29.3494,8.2401 L28.6044,9.1961 C28.6044,9.1961 29.4104,9.9111 29.9474,10.8671 L30.5144,10.8991 C30.5144,10.8991 29.8584,9.6461 29.3494,9.1661 L29.7684,8.6291 L29.3494,8.2401 Z" id="Fill-999" fill="#1A1919"></path>
            <path d="M28.575,7.7337 L27.922,8.7167 C27.922,8.7167 26.99,8.1747 25.914,7.9597 L25.714,7.4297 C25.714,7.4297 27.106,7.6677 27.719,7.9987 L28.101,7.4357 L28.575,7.7337 Z" id="Fill-1000" fill="#1A1919"></path>
            <path d="M34.3084,25.2318 L33.1804,24.7928 C33.1804,24.7928 32.7244,25.7708 31.9654,26.5618 L32.1024,27.1108 C32.1024,27.1108 33.1124,26.1228 33.4224,25.4978 L34.0584,25.7408 L34.3084,25.2318 Z" id="Fill-1001" fill="#1A1919"></path>
            <path d="M34.5701,24.3416 L33.4391,24.0006 C33.4391,24.0006 33.6921,22.9536 33.5871,21.8626 L34.0351,21.5126 C34.0351,21.5126 34.2121,22.9176 34.0701,23.5986 L34.7181,23.8016 L34.5701,24.3416 Z" id="Fill-1002" fill="#1A1919"></path>
            <path d="M19.7557,35.0965 L19.7987,33.8865 C19.7987,33.8865 18.7237,33.7765 17.7307,33.3195 L17.2547,33.6275 C17.2547,33.6275 18.5197,34.2565 19.2137,34.3465 L19.1907,35.0255 L19.7557,35.0965 Z" id="Fill-1003" fill="#1A1919"></path>
            <path d="M20.6805,35.0501 L20.6305,33.8701 C20.6305,33.8701 21.7035,33.7651 22.6995,33.3081 L23.1765,33.6171 C23.1765,33.6171 21.9095,34.2451 21.2165,34.3331 L21.2415,35.0141 L20.6805,35.0501 Z" id="Fill-1004" fill="#1A1919"></path>
            <path d="M5.7537,24.2318 L6.9247,23.9158 C6.9247,23.9158 6.7107,22.8568 6.8547,21.7738 L6.4197,21.4088 C6.4197,21.4088 6.1907,22.8058 6.3117,23.4928 L5.6537,23.6688 L5.7537,24.2318 Z" id="Fill-1005" fill="#1A1919"></path>
            <path d="M6.0711,25.1019 L7.1831,24.7059 C7.1831,24.7059 7.6001,25.7009 8.3311,26.5179 L8.1751,27.0639 C8.1751,27.0639 7.2031,26.0379 6.9141,25.4029 L6.2711,25.6259 L6.0711,25.1019 Z" id="Fill-1006" fill="#1A1919"></path>
            <path d="M11.7127,7.7181 L12.3817,8.7291 C12.3817,8.7291 13.3167,8.1921 14.3927,7.9881 L14.5997,7.4561 C14.5997,7.4561 13.2027,7.6811 12.5887,8.0121 L12.2117,7.4451 L11.7127,7.7181 Z" id="Fill-1007" fill="#1A1919"></path>
            <path d="M10.9832,8.2918 L11.7102,9.2218 C11.7102,9.2218 10.8982,9.9338 10.3552,10.8848 L9.7862,10.9098 C9.7862,10.9098 10.4532,9.6608 10.9652,9.1878 L10.5492,8.6478 L10.9832,8.2918 Z" id="Fill-1008" fill="#1A1919"></path>
            <polygon id="Fill-1009" fill="#1A1919" points="23.2518 18.3993 20.7468 18.3993 20.7468 16.7543 19.6288 16.7543 19.6288 18.3993 17.1248 18.3993 17.1248 19.5153 19.6288 19.5153 19.6288 24.1813 20.7468 24.1813 20.7468 19.5153 23.2518 19.5153"></polygon>
        </g>
    </g>
</svg>