<?xml version="1.0" encoding="UTF-8"?>
<svg width="127px" height="127px" viewBox="0 0 127 127" version="1.1" xmlns="http://www.w3.org/2000/svg" xmlns:xlink="http://www.w3.org/1999/xlink">
    <title>customer-support备份</title>
    <g id="Page-1" stroke="none" stroke-width="1" fill="none" fill-rule="evenodd">
        <g id="customer-support备份" fill-rule="nonzero">
            <circle id="Oval" fill="#F06151" cx="40.8072376" cy="49.1399465" r="40.6090673"></circle>
            <path d="M74.4828594,90.9375327 L74.4828594,90.9375327 C65.7668871,81.8252198 53.4851069,76.674804 40.8069861,76.674804 L40.8069861,76.674804 C28.1291168,76.674804 16.0452554,81.8252198 7.13111287,90.9375327 C3.76372673,94.5033406 1.78277822,99.059497 1.78277822,104.011743 L1.78277822,124.811576 L79.435105,124.811576 L79.435105,104.011743 C79.6332752,99.059497 77.850497,94.5033406 74.4828594,90.9375327 Z" id="Shape" fill="#4FBF9F"></path>
            <path d="M79.6332752,126.792525 L1.98094851,126.792525 C0.792429703,126.792525 0,126.000095 0,124.811576 L0,104.011743 C0,98.6631564 1.98094851,93.5127406 5.74467525,89.5508436 C14.8569881,80.0424416 27.5348574,74.6938554 40.8072376,74.6938554 C53.8814475,74.6938554 66.7574871,80.0424416 75.8698,89.5508436 C79.6335267,93.5127406 81.6144752,98.6631564 81.6144752,104.011743 L81.6144752,124.811576 C81.6144752,125.801925 80.8217941,126.792525 79.6332752,126.792525 Z M3.96189703,122.830628 L77.6525782,122.830628 L77.6525782,104.011743 C77.6525782,99.6537564 76.0677188,95.4936891 72.8982515,92.3242218 C64.5783683,83.6082495 52.6926772,78.6557525 40.8072376,78.6557525 C28.7236277,78.6557525 17.0361069,83.607998 8.71622376,92.3242218 C5.74492673,95.4936891 3.96189703,99.6537564 3.96189703,104.011743 L3.96189703,122.830628 L3.96189703,122.830628 Z" id="Shape" fill="#183651"></path>
            <path d="M8.51805347,116.689612 L8.51805347,104.209661 C8.51805347,101.436283 9.50840198,99.0592455 11.4893505,97.078297 C19.2149743,89.154503 29.911895,84.5983465 41.0051564,84.5983465 C52.0984178,84.5983465 62.7953386,89.154503 70.5209624,97.078297 C72.3037406,99.0592455 73.4922594,101.634453 73.4922594,104.209661 L73.4922594,116.689612 L8.51805347,116.689612 L8.51805347,116.689612 Z" id="Shape" fill="#FFFFFF"></path>
            <polygon id="Shape" fill="#F06151" points="43.3824455 84.2025089 45.1652238 78.2596634 40.410897 73.3074178 35.8547406 78.2596634 37.4396 84.2025089 32.6852733 104.804172 40.410897 113.718315 48.3346911 104.804172"></polygon>
            <path d="M56.6545743,32.1040911 L45.7594832,30.3213129 L29.9121465,35.669899 L21.5922634,45.7725604 L24.1674713,63.2047564 C24.1674713,63.2047564 24.1674713,65.9781347 24.7617307,67.5627426 C29.3178871,81.627301 48.7310317,82.617901 55.2681366,69.5436911 C56.2584851,67.7609129 57.0509149,63.9971861 57.6451743,61.4219782 L60.0222119,41.4145743 L56.6545743,32.1040911 Z" id="Shape" fill="#FBBD5E"></path>
            <path d="M40.2129782,80.636701 L40.2129782,80.636701 C32.0912653,80.636701 25.3559901,75.6844554 22.7807822,68.1567505 C22.1865228,66.3739723 22.1865228,63.9966832 21.9883525,63.4024238 L19.4131446,46.168398 C19.4131446,45.5741386 19.4131446,44.9798792 19.8092337,44.5835386 L28.1291168,34.4808772 C28.3272871,34.2827069 28.7233762,33.8866178 29.1194653,33.8866178 L44.966802,28.5380317 C45.3628911,28.3398614 45.5610614,28.3398614 45.9571505,28.5380317 L56.8522416,30.3208099 C57.6446713,30.5189802 58.2389307,30.9150693 58.437101,31.5093287 L61.8047386,40.8198119 C62.0029089,41.0179822 62.0029089,41.4140713 62.0029089,41.8101604 L59.6258713,61.8175644 L59.6258713,62.0157347 L59.2297822,63.6005941 C58.6355228,65.9776317 57.8430931,68.7510099 57.0506634,70.3358693 C53.881196,76.674804 47.5422614,80.636701 40.2129782,80.636701 Z M23.7711307,46.3668198 L26.1481683,62.8084158 L26.1481683,63.0065861 C26.1481683,63.7990158 26.3463386,65.7799644 26.7424277,66.9684832 C28.7233762,72.9113287 34.0719624,76.6750554 40.410897,76.6750554 L40.410897,76.6750554 C46.1555723,76.6750554 51.1078178,73.7037584 53.6830257,68.5533426 C54.2772851,67.3648238 54.8715446,64.5914455 55.465804,62.610497 L55.8618931,61.0256376 L58.0410119,41.6124931 L55.2676337,33.8868693 L45.9571505,32.3020099 L31.1001624,37.2542554 L23.7711307,46.3668198 Z" id="Shape" fill="#183651"></path>
            <path d="M51.3059881,36.2639069 C51.3059881,36.2639069 49.7211287,45.9704792 31.4967545,44.3856198 C31.4967545,44.3856198 22.978701,40.2255525 24.7614792,55.8749703 C24.7614792,55.8749703 24.9596495,61.4214752 24.3653901,63.204505 C24.3653901,63.204505 4.55615644,31.1134911 30.902495,20.8126594 C30.902495,20.8126594 46.1555723,13.0870356 53.2869366,26.1612455 C53.2869366,26.1612455 69.1342733,27.746105 62.2010792,50.9229762 L57.8430931,61.619897 C57.6449228,61.4217267 59.6258713,34.2829584 51.3059881,36.2639069 Z" id="Shape" fill="#E0E4E8"></path>
            <path d="M24.1672198,65.1854535 C23.5729604,65.1854535 22.7805307,64.7893644 22.5823604,64.195105 C22.1862713,63.4026752 11.6872693,46.3668198 16.2434257,32.5001802 C18.2243743,26.3594158 22.978701,21.8032594 30.1098139,19.0298812 C30.1098139,19.0298812 34.8641406,16.6528436 40.6088158,16.6528436 C46.5516614,16.6528436 51.3057366,19.4262218 54.475204,24.3784673 C56.4561525,24.7745564 60.4180495,26.1612455 63.1911762,30.3213129 C66.5588139,35.2735584 66.7567327,42.4049228 63.9836059,51.5172356 L59.6256198,62.2141564 C59.2295307,63.204505 58.2389307,63.6008455 57.2485822,63.4026752 C56.2582337,63.204505 55.6637228,62.2141564 55.6637228,61.4217267 C56.2579822,54.2903624 55.8618931,41.8104119 52.8903446,38.8391149 C52.6921743,38.6409446 52.6921743,38.6409446 52.4942554,38.4430257 C51.3057366,41.216404 47.1456693,46.7629089 35.0620594,46.7629089 C33.8735406,46.7629089 32.4868515,46.7629089 31.1001624,46.5647386 C30.9019921,46.5647386 30.7040733,46.5647386 30.3077327,46.3665683 L30.3077327,46.3665683 C30.3077327,46.3665683 29.7134733,46.168398 28.9210436,46.168398 C28.3267842,46.168398 27.7325248,46.3665683 27.5343545,46.7626574 C26.940095,47.5550871 25.7515762,49.7339545 26.3458356,55.8749703 C26.3458356,57.0634891 26.5440059,62.0157347 25.7515762,63.9966832 C25.5534059,64.7891129 24.9591465,65.185202 24.1667168,65.3833723 C24.3653901,65.1854535 24.3653901,65.1854535 24.1672198,65.1854535 Z M40.6090673,20.4165703 C35.8547406,20.4165703 31.6949248,22.3975188 31.6949248,22.3975188 C25.5541604,24.7745564 21.5922634,28.5382832 20.007404,33.4907802 C17.6303663,40.8203149 20.2055743,49.5362871 22.5826119,55.4791327 C21.9883525,49.9326277 22.7807822,45.9707307 24.7617307,43.7916119 C25.9502495,42.6030931 27.3369386,41.8106634 29.1197168,41.8106634 C30.3082356,41.8106634 31.2988356,42.2067525 31.893095,42.4049228 C33.0816139,42.4049228 34.0722139,42.6030931 35.2607327,42.6030931 C47.938602,42.6030931 49.3252911,36.2641584 49.3252911,35.8678178 C49.5234614,35.0753881 50.1177208,34.4811287 50.9101505,34.2829584 C52.891099,33.8868693 54.6738772,34.4811287 56.0605663,35.8678178 C58.8339446,38.8391149 59.6261228,45.178301 60.0224634,51.120895 L60.4185525,50.1305465 C62.7955901,42.4049228 62.5976713,36.4620772 60.0224634,32.5001802 C57.4472554,28.5382832 53.2871881,28.1421941 53.0892693,28.1421941 C52.4950099,28.1421941 51.9007505,27.746105 51.5044099,27.1518455 C49.1271208,22.5954376 45.3633941,20.4165703 40.6090673,20.4165703 Z" id="Shape" fill="#183651"></path>
            <path d="M83.1990832,26.3594158 L86.7646396,24.9727267 C94.4902634,31.708002 106.573873,62.4123267 105.583525,72.7131584 L102.017968,74.0998475 L110.536022,96.0882 L113.11123,94.8996812 C121.035024,91.7302139 125.789099,83.608501 124.40241,75.2883663 C121.827202,57.4600812 108.951162,24.7745564 98.6503307,9.9178198 C93.896004,2.98462574 84.7839426,0.211247525 76.8601485,3.18254455 L74.2849406,4.37106337 L83.1990832,26.3594158 Z" id="Shape" fill="#E0E4E8"></path>
            <path d="M110.53577,98.068897 C110.3376,98.068897 109.941511,98.068897 109.743341,97.8707267 C109.347251,97.6725564 108.950911,97.2764673 108.752992,96.6822079 L100.03702,74.8920257 C99.6409307,73.9016772 100.03702,72.7129069 101.225539,72.3168178 L103.602576,71.3264693 C103.602576,61.0256376 93.3017446,34.679299 86.3685505,27.3497644 L84.1894317,28.3401129 C83.7933426,28.5382832 83.1990832,28.5382832 82.6045723,28.3401129 C82.2084832,28.1419426 81.8121426,27.7458535 81.6142238,27.1515941 L72.7000812,5.16324158 C72.3039921,4.17289307 72.7000812,2.98412277 73.6904297,2.58803366 L76.2656376,1.39951485 C78.6426752,0.409166337 81.2178832,0.0128257426 83.7930911,0.0128257426 C90.5283663,0.0128257426 96.6691307,3.38046337 100.432857,8.72879802 C110.931859,23.9818752 123.807899,56.6674 126.581026,74.8917743 C127.967715,84.2022574 122.817299,93.3143188 113.903156,96.6819564 L111.327949,98.068897 C111.13003,98.068897 110.733941,98.068897 110.53577,98.068897 Z M104.395006,75.2883663 L111.52637,93.7109109 L112.3188,93.3148218 C119.450164,90.5414436 123.60998,83.2121604 122.421461,75.6844554 C119.846253,58.2522594 106.970214,25.5669861 97.0654713,11.1060871 C94.0941743,6.74810099 88.9437584,3.97472277 83.5951723,3.97472277 C81.6142238,3.97472277 79.6332752,4.37081188 77.6523267,5.16324158 L76.859897,5.55933069 L83.9912614,23.9818752 L85.5761208,23.3876158 C86.1703802,23.1894455 86.9628099,23.1894455 87.5570693,23.783705 C96.0751228,30.716899 108.554822,62.0157347 107.366303,72.9108257 C107.366303,73.7032554 106.772044,74.2975149 106.177784,74.4956851 L104.395006,75.2883663 Z" id="Shape" fill="#183651"></path>
            <path d="M95.6787822,76.4768851 C93.1035743,77.4672337 91.9150554,80.4387822 92.905404,82.8158198 L97.8576495,95.6918594 C98.847998,98.2670673 101.819547,99.4555861 104.196584,98.4652376 L110.337349,96.0882 L101.621376,74.0998475 L95.6787822,76.4768851 Z" id="Shape" fill="#FFFFFF"></path>
            <path d="M102.612228,100.842275 L102.612228,100.842275 C99.8388495,100.842275 97.2636416,99.059497 96.2732931,96.4842891 L91.3210475,83.6082495 C89.9343584,80.0426931 91.7171366,76.080796 95.2829446,74.6941069 L101.423709,72.3170693 C102.414057,71.9209802 103.602828,72.5152396 103.998917,73.5055881 L112.714889,95.4939406 C112.913059,95.8900297 112.913059,96.4842891 112.714889,97.0788 C112.516719,97.4748891 112.12063,97.8712297 111.52637,98.0691485 L105.385606,100.446186 C104.395006,100.644105 103.404406,100.842275 102.612228,100.842275 Z M100.829198,76.674804 L96.4712119,78.2596634 C94.8863525,78.8539228 94.2920931,80.636701 94.8863525,82.0233901 L99.838598,94.8994297 C100.234687,96.0879485 101.423457,96.6822079 102.611976,96.6822079 L102.611976,96.6822079 C103.008065,96.6822079 103.404406,96.6822079 103.602325,96.4840376 L107.960311,94.8991782 L100.829198,76.674804 Z" id="Shape" fill="#183651"></path>
            <path d="M68.342095,6.74810099 C65.7668871,7.7384495 64.5783683,10.709998 65.5687168,13.0870356 L70.5209624,25.9630752 C71.5113109,28.5382832 74.4828594,29.726802 76.859897,28.7364535 L83.0006614,26.3594158 L74.4826079,4.37106337 L68.342095,6.74810099 Z" id="Shape" fill="#FFFFFF"></path>
            <path d="M75.0771188,31.1134911 L75.0771188,31.1134911 C72.3037406,31.1134911 69.7285327,29.3307129 68.7381842,26.755505 L63.7859386,13.8794653 C62.3992495,10.3139089 64.1820277,6.35201188 67.7478356,4.96532277 L73.8886,2.58828515 C74.8789485,2.19219604 76.0677188,2.78645545 76.4638079,3.77680396 L85.1797802,25.7651564 C85.3779505,26.1612455 85.3779505,26.755505 85.1797802,27.3500158 C84.9816099,27.746105 84.5855208,28.1424455 83.9912614,28.3403644 L77.6523267,30.717402 C76.8601485,30.9155723 76.0677188,31.1134911 75.0771188,31.1134911 Z M73.2943406,6.94627129 L68.9363545,8.53113069 C67.351495,9.1253901 66.7572356,10.9081683 67.351495,12.2948574 L72.3037406,25.170897 C72.6998297,26.3594158 73.8886,26.9536752 75.0771188,26.9536752 L75.0771188,26.9536752 C75.4732079,26.9536752 75.8695485,26.9536752 76.0674673,26.755505 L80.4254535,25.1706455 L73.2943406,6.94627129 Z" id="Shape" fill="#183651"></path>
            <polygon id="Rectangle-path" fill="#183651" transform="translate(101.996569, 34.011334) rotate(-112.204669) translate(-101.996569, -34.011334) " points="100.015832 32.0305965 103.977307 32.0305965 103.977307 35.9920718 100.015832 35.9920718"></polygon>
            <polygon id="Rectangle-path" fill="#183651" transform="translate(106.384128, 44.477785) rotate(-112.179120) translate(-106.384128, -44.477785) " points="104.403197 42.4968543 108.365059 42.4968543 108.365059 46.4587161 104.403197 46.4587161"></polygon>
            <polygon id="Rectangle-path" fill="#183651" transform="translate(110.516174, 54.840772) rotate(-112.179120) translate(-110.516174, -54.840772) " points="108.535243 52.8598409 112.497105 52.8598409 112.497105 56.8217028 108.535243 56.8217028"></polygon>
        </g>
    </g>
</svg>