<?xml version="1.0" encoding="UTF-8"?>
<svg width="127px" height="127px" viewBox="0 0 127 127" version="1.1" xmlns="http://www.w3.org/2000/svg" xmlns:xlink="http://www.w3.org/1999/xlink">
    <title>marketing-2备份</title>
    <g id="Page-1" stroke="none" stroke-width="1" fill="none" fill-rule="evenodd">
        <g id="marketing-2备份" fill-rule="nonzero">
            <path d="M16.2868645,2.97129703 L6.12382869,2.97129703 C3.93168725,2.97129703 2.13825498,4.75407525 2.13825498,6.93319406 L2.13825498,22.3844416 L20.0730837,22.3844416 L20.0730837,6.73527525 C20.0733367,4.55615644 18.2796514,2.97129703 16.2868645,2.97129703 Z" id="Shape" fill="#F06151"></path>
            <path d="M20.0733367,24.1672198 L2.13825498,24.1672198 C1.14198805,24.1672198 0.145468127,23.3747901 0.145468127,22.1862713 L0.145468127,6.73502376 C0.145468127,3.56555644 2.73606574,0.990348515 6.12382869,0.990348515 L16.2868645,0.990348515 C19.4752729,0.990348515 22.0658706,3.56555644 22.0658706,6.73502376 L22.0658706,22.1862713 C22.0661235,23.1768713 21.2689582,24.1672198 20.0733367,24.1672198 Z M4.13104183,20.2055743 L18.0802968,20.2055743 L18.0802968,6.73527525 C18.0802968,5.74492673 17.2831315,4.75432673 16.08751,4.75432673 L6.12382869,4.75432673 C5.12756175,4.75432673 4.13104183,5.54675644 4.13104183,6.73527525 L4.13104183,20.2055743 Z" id="Shape" fill="#183651"></path>
            <rect id="Rectangle-path" fill="#FBBD5E" x="2.13825498" y="22.1865228" width="17.9348287" height="82.6048238"></rect>
            <path d="M20.0733367,106.772044 L2.13825498,106.772044 C1.14198805,106.772044 0.145468127,105.979614 0.145468127,104.791095 L0.145468127,22.1865228 C0.145468127,21.1961743 0.942633466,20.2055743 2.13825498,20.2055743 L20.0730837,20.2055743 C21.0693506,20.2055743 22.0658706,20.998004 22.0658706,22.1865228 L22.0658706,104.791347 C22.0661235,105.781695 21.2689582,106.772044 20.0733367,106.772044 Z M4.13104183,102.810147 L18.0802968,102.810147 L18.0802968,24.1672198 L4.13104183,24.1672198 C4.13104183,24.1672198 4.13104183,102.810147 4.13104183,102.810147 Z" id="Shape" fill="#183651"></path>
            <polygon id="Shape" fill="#FFFFFF" points="20.0733367 104.791095 11.1056693 122.81755 2.13825498 104.791095"></polygon>
            <path d="M11.1056693,124.798499 C10.308504,124.798499 9.71069323,124.40241 9.31223705,123.80815 L0.344822709,105.583525 C0.145468127,104.989265 0.145468127,104.196836 0.344822709,103.800747 C0.743278884,103.206487 1.34108964,102.810398 1.93915339,102.810398 L19.8739821,102.810398 C20.4717928,102.810398 21.2689582,103.206487 21.4683127,103.800747 C21.8667689,104.395006 21.8667689,104.989265 21.4683127,105.583525 L12.8993546,123.80815 C12.5006454,124.40241 11.9028347,124.798499 11.1056693,124.798499 Z M5.32666335,106.772044 L11.1056693,118.657735 L16.8846753,106.772044 L5.32666335,106.772044 Z" id="Shape" fill="#183651"></path>
            <rect id="Rectangle-path" fill="#FFFFFF" x="28.8413964" y="1.98094851" width="95.0549462" height="16.2436772"></rect>
            <path d="M123.896343,20.2055743 L28.8413964,20.2055743 C27.8451295,20.2055743 26.8486096,19.4131446 26.8486096,18.2246257 L26.8486096,1.98094851 C26.8486096,0.9906 27.6457749,0 28.8413964,0 L123.896343,0 C124.89261,0 125.889129,0.792429703 125.889129,1.98094851 L125.889129,18.2246257 C125.889129,19.4131446 124.892863,20.2055743 123.896343,20.2055743 Z M30.8341833,16.2436772 L121.903556,16.2436772 L121.903556,3.96189703 L30.8341833,3.96189703 L30.8341833,16.2436772 Z" id="Shape" fill="#183651"></path>
            <rect id="Rectangle-path" fill="#E0E4E8" x="28.8413964" y="18.2246257" width="95.0549462" height="66.5593168"></rect>
            <path d="M123.896343,86.7646396 L28.8413964,86.7646396 C27.8451295,86.7646396 26.8486096,85.9722099 26.8486096,84.7836911 L26.8486096,18.2246257 C26.8486096,17.2342772 27.6457749,16.2436772 28.8413964,16.2436772 L123.896343,16.2436772 C124.89261,16.2436772 125.889129,17.0361069 125.889129,18.2246257 L125.889129,84.7839426 C125.889129,85.7742911 124.892863,86.7646396 123.896343,86.7646396 Z M30.8341833,82.8027426 L121.903556,82.8027426 L121.903556,20.2055743 L30.8341833,20.2055743 L30.8341833,82.8027426 Z" id="Shape" fill="#183651"></path>
            <polygon id="Rectangle-path" fill="#FFFFFF" points="36.6131892 25.9502495 116.12455 25.9502495 116.12455 77.0583188 36.6131892 77.0583188"></polygon>
            <polygon id="Rectangle-path" fill="#183651" points="89.4216614 7.92379406 93.4072351 7.92379406 93.4072351 12.0838614 89.4216614 12.0838614"></polygon>
            <polygon id="Rectangle-path" fill="#183651" points="100.381863 7.92379406 104.367436 7.92379406 104.367436 12.0838614 100.381863 12.0838614"></polygon>
            <polygon id="Rectangle-path" fill="#183651" points="111.342064 7.92379406 115.327637 7.92379406 115.327637 12.0838614 111.342064 12.0838614"></polygon>
            <polygon id="Rectangle-path" fill="#183651" points="61.5228984 40.6090673 65.5084721 40.6090673 65.5084721 44.7691347 61.5228984 44.7691347"></polygon>
            <polygon id="Rectangle-path" fill="#183651" points="72.4830996 40.6090673 76.4686733 40.6090673 76.4686733 44.7691347 72.4830996 44.7691347"></polygon>
            <polygon id="Rectangle-path" fill="#183651" points="83.4433008 40.6090673 87.4288745 40.6090673 87.4288745 44.7691347 83.4433008 44.7691347"></polygon>
            <polygon id="Rectangle-path" fill="#183651" points="8.91378088 44.9670535 13.0987092 44.9670535 13.0987092 48.9289505 8.91378088 48.9289505"></polygon>
            <polygon id="Rectangle-path" fill="#183651" points="8.91378088 61.6068198 13.0987092 61.6068198 13.0987092 65.5687168 8.91378088 65.5687168"></polygon>
            <polygon id="Rectangle-path" fill="#183651" points="8.91378088 78.0486673 13.0987092 78.0486673 13.0987092 82.0105644 8.91378088 82.0105644"></polygon>
            <polygon id="Rectangle-path" fill="#FFFFFF" points="38.6059761 72.5019109 124.892863 72.5019109 124.892863 124.798499 38.6059761 124.798499"></polygon>
            <path d="M124.892863,126.779448 L38.6059761,126.779448 C37.6097092,126.779448 36.6131892,125.987018 36.6131892,124.798499 L36.6131892,72.5019109 C36.6131892,71.5115624 37.4103546,70.5209624 38.6059761,70.5209624 L124.892863,70.5209624 C125.889129,70.5209624 126.885649,71.3133921 126.885649,72.5019109 L126.885649,124.798499 C126.686295,125.987018 125.889129,126.779448 124.892863,126.779448 Z M40.5987629,122.81755 L122.900076,122.81755 L122.900076,74.4828594 L40.5987629,74.4828594 L40.5987629,122.81755 Z" id="Shape" fill="#183651"></path>
            <polygon id="Rectangle-path" fill="#4FBF9F" points="45.5806036 79.8314455 117.71888 79.8314455 117.71888 117.667135 45.5806036 117.667135"></polygon>
            <polygon id="Shape" fill="#FFFFFF" points="38.6059761 124.798499 81.6498685 93.3017446 124.892863 124.798499"></polygon>
            <path d="M124.892863,126.779448 L124.892863,126.779448 L38.6059761,126.779448 C37.8088108,126.779448 37.0116454,126.185188 36.8125438,125.392758 C36.6131892,124.600329 36.8125438,123.807899 37.4103546,123.21364 L80.454247,91.7168851 C81.0520578,91.1226257 82.0485777,91.1226257 82.84549,91.7168851 L125.690028,123.015469 C126.287839,123.411558 126.686295,124.005818 126.686295,124.798248 C126.885649,125.987018 125.889129,126.779448 124.892863,126.779448 Z M44.5843367,122.81755 L118.914502,122.81755 L81.6498685,95.6787822 L44.5843367,122.81755 Z" id="Shape" fill="#183651"></path>
            <polygon id="Shape" fill="#FFFFFF" points="124.892863 72.5019109 81.6498685 110.53577 38.6059761 72.5019109"></polygon>
            <path d="M81.6498685,112.516719 C81.2514124,112.516719 80.6536016,112.318549 80.454247,112.12063 L37.211,73.8886 C36.6131892,73.2943406 36.4138347,72.5019109 36.6131892,71.7094812 C36.8125438,70.9170515 37.6094562,70.5209624 38.4066215,70.5209624 L124.693508,70.5209624 C125.490673,70.5209624 126.287839,71.1152218 126.48694,71.7094812 C126.686295,72.5019109 126.48694,73.2943406 125.889129,73.8886 L83.0445916,111.922459 C82.6461355,112.3188 82.2476793,112.516719 81.6498685,112.516719 Z M43.7871713,74.4828594 L81.6498685,107.960562 L119.711667,74.4828594 L43.7871713,74.4828594 Z" id="Shape" fill="#183651"></path>
            <polygon id="Shape" fill="#4FBF9F" points="57.7364263 79.8314455 105.762159 79.8314455 81.6498685 101.027368"></polygon>
        </g>
    </g>
</svg>