<?xml version="1.0" encoding="UTF-8"?>
<svg width="127px" height="127px" viewBox="0 0 127 127" version="1.1" xmlns="http://www.w3.org/2000/svg" xmlns:xlink="http://www.w3.org/1999/xlink">
    <title>coffee-break备份</title>
    <g id="Page-1" stroke="none" stroke-width="1" fill="none" fill-rule="evenodd">
        <g id="coffee-break备份" fill-rule="nonzero">
            <circle id="Oval" fill="#E0E4E8" cx="63.3898495" cy="63.4391406" r="63.3898495"></circle>
            <path d="M105.385354,64.4297406 L82.2084832,64.4297406 C81.0199644,64.4297406 79.8314455,63.8354812 79.2371861,62.8448812 C78.4448589,61.8545327 78.2468376,60.6657624 78.6429267,59.4772436 L87.7552396,25.8013703 C88.1513287,24.2165109 89.7361881,23.0279921 91.5189663,23.0279921 L105.583525,23.0279921 C110.733941,23.0279921 115.091927,27.3859782 115.091927,32.5363941 L115.091927,54.9208356 C114.894008,60.2696733 110.733941,64.4297406 105.385354,64.4297406 Z M87.1609802,56.7041168 L105.385606,56.7041168 C106.375954,56.7041168 107.168384,55.9116871 107.168384,54.9213386 L107.168384,32.536897 C107.168384,31.5465485 106.375954,30.7541188 105.385606,30.7541188 L94.2923446,30.7541188 L87.1609802,56.7041168 Z" id="Shape" fill="#FFFFFF"></path>
            <path d="M105.385354,66.4106891 L82.2084832,66.4106891 C80.425705,66.4106891 78.6429267,65.6182594 77.6523267,64.0336515 C76.4638079,62.6469624 76.2656376,60.6660139 76.6619782,58.8832356 L85.7742911,25.2073624 C86.3685505,22.6321545 88.7455881,20.8493762 91.320796,20.8493762 L105.385354,20.8493762 C111.724289,20.8493762 116.874705,25.9997921 116.874705,32.3387267 L116.874705,54.7231683 C116.874705,61.2602733 111.724289,66.4106891 105.385354,66.4106891 Z M91.320796,25.0091921 C90.5283663,25.0091921 89.7359366,25.6034515 89.5380178,26.3958812 L80.425705,60.0717545 C80.2275347,60.6660139 80.425705,61.2602733 80.8217941,61.6566139 C81.2178832,62.052703 81.8121426,62.4490436 82.4066535,62.4490436 L105.583525,62.4490436 C109.743592,62.4490436 113.110978,59.0814059 113.110978,54.9215901 L113.110978,32.5371485 C113.110978,28.3770812 109.743341,25.009695 105.583525,25.009695 C105.583525,25.0091921 91.320796,25.0091921 91.320796,25.0091921 Z M105.385354,58.6850653 L87.1607287,58.6850653 C86.5664693,58.6850653 85.9722099,58.486895 85.5758693,57.8926356 C85.1797802,57.4965465 84.9816099,56.7041168 85.1797802,56.1098574 L92.1129743,30.1596079 C92.3111446,29.3671782 93.1033228,28.7729188 94.0939228,28.7729188 L105.187184,28.7729188 C107.366303,28.7729188 108.950911,30.555697 108.950911,32.5366455 L108.950911,54.9210871 C109.149081,57.1002059 107.564473,58.6850653 105.385354,58.6850653 Z M89.7361881,54.7231683 L105.187436,54.7231683 L105.187436,32.7348158 L95.6790337,32.7348158 L89.7361881,54.7231683 Z" id="Shape" fill="#183651"></path>
            <path d="M124.798499,92.7570277 L6.93319406,92.7570277 C0.594259406,102.4636 0.594259406,114.94355 6.93319406,124.649871 L124.798499,124.649871 C118.459564,115.141469 118.459564,102.4636 124.798499,92.7570277 Z" id="Shape" fill="#4FBF9F"></path>
            <path d="M124.798499,126.82899 L6.93319406,126.82899 C6.33893465,126.82899 5.54650495,126.432901 5.34833465,125.838642 C-1.38694059,115.53781 -1.38694059,102.067511 5.34833465,91.7666792 C5.74442376,91.1724198 6.33868317,90.7763307 6.93319406,90.7763307 L124.798499,90.7763307 C125.590929,90.7763307 126.185188,91.1724198 126.581277,91.7666792 C126.977366,92.3609386 126.977366,93.1533683 126.581277,93.7476277 C120.638432,102.859941 120.638432,114.547461 126.581277,123.461604 C126.977366,124.055863 126.977366,124.848293 126.581277,125.442552 C126.185188,126.432901 125.590929,126.82899 124.798499,126.82899 Z M7.92379406,122.867093 L121.431113,122.867093 C117.073127,114.151121 117.073127,103.652119 121.431113,94.935895 L7.92379406,94.935895 C2.77337822,103.453949 2.77337822,114.151121 7.92379406,122.867093 Z" id="Shape" fill="#183651"></path>
            <path d="M11.6875208,116.924248 C9.50840198,111.773832 9.50840198,106.029156 11.6875208,100.878741 L113.110978,100.878741 C111.922459,106.227327 111.922459,111.773832 113.110978,116.924248 L11.6875208,116.924248 Z" id="Shape" fill="#FFFFFF"></path>
            <polygon id="Rectangle-path" fill="#183651" points="54.2775366 106.821586 120.044424 106.821586 120.044424 110.783483 54.2775366 110.783483"></polygon>
            <polygon id="Rectangle-path" fill="#183651" points="20.2055743 106.821586 24.1674713 106.821586 24.1674713 110.783483 20.2055743 110.783483"></polygon>
            <polygon id="Rectangle-path" fill="#183651" points="30.5064059 106.821586 34.468303 106.821586 34.468303 110.783483 30.5064059 110.783483"></polygon>
            <polygon id="Rectangle-path" fill="#183651" points="40.6090673 106.821586 44.5709644 106.821586 44.5709644 110.783483 40.6090673 110.783483"></polygon>
            <path d="M39.2223782,82.8522851 L80.2275347,82.8522851 C89.5380178,76.3151802 95.4806119,65.6182594 95.4806119,53.5346495 L95.4806119,17.8778277 L23.969301,17.8778277 L23.969301,53.5346495 C23.969301,65.6182594 29.9121465,76.3151802 39.2223782,82.8522851 Z" id="Shape" fill="#FFFFFF"></path>
            <path d="M80.2275347,84.8332337 L39.2223782,84.8332337 C38.8262891,84.8332337 38.4299485,84.6350634 38.0338594,84.4371446 C27.931198,77.3057802 21.7901822,65.8164297 21.7901822,53.5346495 L21.7901822,17.8778277 C21.7901822,16.6893089 22.5826119,15.8968792 23.7711307,15.8968792 L95.4808634,15.8968792 C96.6693822,15.8968792 97.4618119,16.6893089 97.4618119,17.8778277 L97.4618119,53.5346495 C97.4618119,65.8164297 91.3210475,77.5039505 81.2181347,84.4371446 C81.0199644,84.6353149 80.6238752,84.8332337 80.2275347,84.8332337 Z M39.8166376,80.8713366 L79.435105,80.8713366 C88.1510772,74.532402 93.4996634,64.2315703 93.4996634,53.534398 L93.4996634,19.8587762 L25.9502495,19.8587762 L25.9502495,53.5346495 C25.9502495,64.2315703 31.1006653,74.532402 39.8166376,80.8713366 Z" id="Shape" fill="#183651"></path>
            <path d="M41.9957564,74.9287426 C35.6568218,69.5801564 31.893095,61.8545327 31.893095,53.5346495 L31.893095,25.8016218 L87.7552396,25.8016218 L87.7552396,53.5346495 C87.7552396,61.8545327 83.9915129,69.7783267 77.6525782,74.9287426 L41.9957564,74.9287426 Z" id="Shape" fill="#FBBD5E"></path>
            <polygon id="Rectangle-path" fill="#FFFFFF" points="20.4034931 82.8522851 99.2445901 82.8522851 99.2445901 92.9549465 20.4034931 92.9549465"></polygon>
            <path d="M99.2445901,94.7379762 L20.4034931,94.7379762 C19.2149743,94.7379762 18.4225446,93.9455465 18.4225446,92.7570277 L18.4225446,82.6543663 C18.4225446,81.4658475 19.2149743,80.6734178 20.4034931,80.6734178 L99.2445901,80.6734178 C100.433109,80.6734178 101.225539,81.4658475 101.225539,82.6543663 L101.225539,92.7570277 C101.225539,93.9455465 100.234939,94.7379762 99.2445901,94.7379762 Z M22.3844416,90.7760792 L97.2636416,90.7760792 L97.2636416,84.6353149 L22.3844416,84.6353149 L22.3844416,90.7760792 Z" id="Shape" fill="#183651"></path>
            <polygon id="Rectangle-path" fill="#183651" points="44.9670535 33.7254158 48.9289505 33.7254158 48.9289505 37.6873129 44.9670535 37.6873129"></polygon>
            <polygon id="Rectangle-path" fill="#183651" points="57.8430931 33.7254158 61.8049901 33.7254158 61.8049901 37.6873129 57.8430931 37.6873129"></polygon>
            <polygon id="Rectangle-path" fill="#183651" points="70.7191327 33.7254158 74.6810297 33.7254158 74.6810297 37.6873129 70.7191327 37.6873129"></polygon>
            <polygon id="Rectangle-path" fill="#183651" points="44.9670535 45.4126851 48.9289505 45.4126851 48.9289505 49.3745822 44.9670535 49.3745822"></polygon>
            <polygon id="Rectangle-path" fill="#183651" points="57.8430931 45.4126851 61.8049901 45.4126851 61.8049901 49.3745822 57.8430931 49.3745822"></polygon>
            <polygon id="Rectangle-path" fill="#183651" points="70.7191327 45.4126851 74.6810297 45.4126851 74.6810297 49.3745822 70.7191327 49.3745822"></polygon>
        </g>
    </g>
</svg>