<?xml version="1.0" encoding="UTF-8"?>
<svg width="127px" height="127px" viewBox="0 0 127 127" version="1.1" xmlns="http://www.w3.org/2000/svg" xmlns:xlink="http://www.w3.org/1999/xlink">
    <title>analytics-5备份</title>
    <g id="Page-1" stroke="none" stroke-width="1" fill="none" fill-rule="evenodd">
        <g id="analytics-5备份" fill-rule="nonzero">
            <path d="M124.798499,84.1896832 L124.798499,11.8856911 C124.798499,6.33918614 120.440513,1.98094851 114.893756,1.98094851 L11.8854396,1.98094851 C6.33893465,1.98094851 1.98069703,6.33893465 1.98069703,11.8856911 L1.98069703,84.1896832 L124.798499,84.1896832 L124.798499,84.1896832 Z" id="Shape" fill="#2EA0DA"></path>
            <path d="M124.798499,86.1703802 L1.98094851,86.1703802 C0.792429703,86.1703802 0,85.3779505 0,84.1894317 L0,11.8856911 C0,5.34858614 5.34858614,0 11.8856911,0 L114.894008,0 C121.431113,0 126.779699,5.34858614 126.779699,11.8856911 L126.779699,84.1896832 C126.779699,85.3779505 125.987018,86.1703802 124.798499,86.1703802 Z M3.96164554,82.2084832 L122.81755,82.2084832 L122.81755,11.8856911 C122.81755,7.52770495 119.251994,3.96189703 114.893756,3.96189703 L11.8854396,3.96189703 C7.52745347,3.96189703 3.96164554,7.52745347 3.96164554,11.8856911 L3.96164554,82.2084832 L3.96164554,82.2084832 Z" id="Shape" fill="#183651"></path>
            <path d="M9.90474257,76.2658891 L9.90474257,11.8856911 C9.90474257,10.6971723 10.6971723,9.90474257 11.8856911,9.90474257 L114.894008,9.90474257 C116.082527,9.90474257 116.874956,10.6971723 116.874956,11.8856911 L116.874956,76.2658891 L9.90474257,76.2658891 Z" id="Shape" fill="#FFFFFF"></path>
            <path d="M1.98094851,84.1894317 L1.98094851,96.867301 C1.98094851,102.413806 6.33893465,106.772044 11.8856911,106.772044 L114.894008,106.772044 C120.440513,106.772044 124.79875,102.414057 124.79875,96.867301 L124.79875,84.1894317 L1.98094851,84.1894317 Z" id="Shape" fill="#FFFFFF"></path>
            <path d="M114.894008,108.752992 L11.8856911,108.752992 C5.34858614,108.752992 0,103.404406 0,96.8675525 L0,84.1896832 C0,83.0011644 0.792429703,82.2087347 1.98094851,82.2087347 L124.798499,82.2087347 C125.987018,82.2087347 126.779448,83.0011644 126.779448,84.1896832 L126.779448,96.8675525 C126.779448,103.404406 121.430861,108.752992 114.894008,108.752992 Z M3.96189703,86.1703802 L3.96189703,96.867301 C3.96189703,101.225287 7.52745347,104.791095 11.8856911,104.791095 L114.894008,104.791095 C119.251994,104.791095 122.817802,101.225539 122.817802,96.867301 L122.817802,86.1703802 L3.96189703,86.1703802 L3.96189703,86.1703802 Z" id="Shape" fill="#183651"></path>
            <rect id="Rectangle-path" fill="#FFFFFF" x="42.1936752" y="106.772044" width="42.5900158" height="18.0264554"></rect>
            <path d="M84.5857723,126.779448 L42.1936752,126.779448 C41.0051564,126.779448 40.2127267,125.987018 40.2127267,124.798499 L40.2127267,106.772044 C40.2127267,105.583525 41.0051564,104.791095 42.1936752,104.791095 L84.7836911,104.791095 C85.9722099,104.791095 86.7646396,105.583525 86.7646396,106.772044 L86.7646396,124.798499 C86.5667208,125.987018 85.7742911,126.779448 84.5857723,126.779448 Z M44.1746238,122.81755 L82.8027426,122.81755 L82.8027426,108.752992 L44.1746238,108.752992 L44.1746238,122.81755 Z" id="Shape" fill="#183651"></path>
            <path d="M91.7171366,126.779448 L35.0625624,126.779448 C33.8740436,126.779448 33.0816139,125.987018 33.0816139,124.798499 C33.0816139,123.60998 33.8740436,122.81755 35.0625624,122.81755 L91.7171366,122.81755 C92.9056554,122.81755 93.6980851,123.60998 93.6980851,124.798499 C93.6980851,125.987018 92.9056554,126.779448 91.7171366,126.779448 Z" id="Shape" fill="#183651"></path>
            <circle id="Oval" fill="#E0E4E8" cx="63.3898495" cy="95.4808634" r="5.94284554"></circle>
            <polygon id="Rectangle-path" fill="#4FBF9F" points="66.7572356 33.477703 76.2656376 33.477703 76.2656376 69.7287842 66.7572356 69.7287842"></polygon>
            <rect id="Rectangle-path" fill="#FBBD5E" x="47.938602" y="41.401497" width="9.50840198" height="28.3272871"></rect>
            <rect id="Rectangle-path" fill="#E0E4E8" x="29.3176356" y="49.3250396" width="9.50840198" height="20.4034931"></rect>
            <polygon id="Shape" fill="#F06151" points="90.1322772 16.2436772 82.8027426 27.5348574 85.3779505 27.5348574 85.3779505 69.926703 94.886604 69.926703 94.886604 27.5348574 97.4618119 27.5348574"></polygon>
            <polygon id="Rectangle-path" fill="#183651" points="24.9596495 18.2246257 28.9215465 18.2246257 28.9215465 22.1865228 24.9596495 22.1865228"></polygon>
            <polygon id="Rectangle-path" fill="#183651" points="34.6662218 18.2246257 38.6281188 18.2246257 38.6281188 22.1865228 34.6662218 22.1865228"></polygon>
            <polygon id="Rectangle-path" fill="#183651" points="44.5709644 18.2246257 48.5328614 18.2246257 48.5328614 22.1865228 44.5709644 22.1865228"></polygon>
        </g>
    </g>
</svg>