<?xml version="1.0" encoding="UTF-8"?>
<svg width="127px" height="127px" viewBox="0 0 127 127" version="1.1" xmlns="http://www.w3.org/2000/svg" xmlns:xlink="http://www.w3.org/1999/xlink">
    <title>contract备份</title>
    <g id="Page-1" stroke="none" stroke-width="1" fill="none" fill-rule="evenodd">
        <g id="contract备份" fill-rule="nonzero">
            <path d="M93.3017446,1.98094851 L93.3017446,124.798499 L1.98094851,124.798499 L1.98094851,12.8760396 C1.98094851,6.93319406 6.93319406,1.98094851 13.0742099,1.98094851 L93.3017446,1.98094851 Z" id="Shape" fill="#FBBD5E"></path>
            <path d="M93.3017446,126.779448 L1.98094851,126.779448 C0.792429703,126.779448 0,125.987018 0,124.798499 L0,12.8760396 C0,5.74467525 5.74467525,0 12.8760396,0 L93.1035743,0 C94.2920931,0 95.0845228,0.792429703 95.0845228,1.98094851 L95.0845228,124.798499 C95.2826931,125.987018 94.4902634,126.779448 93.3017446,126.779448 Z M3.96189703,122.81755 L91.320796,122.81755 L91.320796,3.96189703 L12.8760396,3.96189703 C7.92379406,3.96189703 3.96189703,7.92379406 3.96189703,12.8760396 L3.96189703,122.81755 Z" id="Shape" fill="#183651"></path>
            <path d="M85.3779505,116.874705 L85.3779505,9.90474257 L12.8760396,9.90474257 C11.2911802,9.90474257 9.90474257,11.2914317 9.90474257,12.8760396 L9.90474257,93.896004 L30.7045762,116.874705 L85.3779505,116.874705 Z" id="Shape" fill="#FFFFFF"></path>
            <polygon id="Shape" fill="#E0E4E8" points="9.90474257 94.0941743 30.7043248 116.874705 30.7043248 94.0941743"></polygon>
            <path d="M105.385354,12.4799505 C105.385354,6.73527525 100.631028,1.98094851 94.8863525,1.98094851 L14.0645584,1.98094851 C19.8092337,1.98094851 24.5635604,6.73527525 24.5635604,12.4799505 C24.5635604,18.2246257 19.8092337,22.978701 14.0645584,22.978701 L94.8863525,22.978701 C100.631279,22.978701 105.385354,18.2246257 105.385354,12.4799505 Z" id="Shape" fill="#E0E4E8"></path>
            <path d="M94.886604,24.9596495 L14.0645584,24.9596495 C12.8760396,24.9596495 12.0836099,24.1672198 12.0836099,22.978701 C12.0836099,21.7901822 12.8760396,20.9977525 14.0645584,20.9977525 C18.8188851,20.9977525 22.5826119,17.2340257 22.5826119,12.479699 C22.5826119,7.72537228 18.6207149,3.96189703 14.0645584,3.96189703 C12.8760396,3.96189703 12.0836099,3.16946733 12.0836099,1.98094851 C12.0836099,0.792429703 12.8760396,0 14.0645584,0 L94.8863525,0 C101.819547,0 107.366303,5.54650495 107.366303,12.4799505 C107.366303,19.413396 101.621628,24.9596495 94.886604,24.9596495 Z M23.1768713,20.9977525 L94.886604,20.9977525 C99.6409307,20.9977525 103.404657,17.2340257 103.404657,12.479699 C103.404657,7.72537228 99.6409307,3.96164554 94.886604,3.96164554 L23.1768713,3.96164554 C25.3559901,6.14076436 26.5445089,9.11206139 26.5445089,12.479699 C26.5445089,15.8473366 25.1578198,18.8188851 23.1768713,20.9977525 Z" id="Shape" fill="#183651"></path>
            <polygon id="Shape" fill="#F06151" points="71.5115624 113.110978 65.3705465 107.168384 59.2297822 113.110978 59.2297822 91.9150554 71.5115624 91.9150554"></polygon>
            <circle id="Oval" fill="#4FBF9F" cx="65.3705465" cy="84.9818614" r="13.6684693"></circle>
            <path d="M65.3705465,92.7074851 C61.0125604,92.7074851 57.6449228,89.1419287 57.6449228,84.9818614 C57.6449228,80.8217941 61.2104792,77.2562376 65.3705465,77.2562376 C69.5306139,77.2562376 73.0961703,80.8217941 73.0961703,84.9818614 C73.0961703,89.1419287 69.7287842,92.7074851 65.3705465,92.7074851 Z" id="Shape" fill="#FFFFFF"></path>
            <polygon id="Rectangle-path" fill="#183651" points="20.9977525 33.6758733 74.2846891 33.6758733 74.2846891 37.6377703 20.9977525 37.6377703"></polygon>
            <polygon id="Rectangle-path" fill="#183651" points="20.9977525 46.1555723 74.2846891 46.1555723 74.2846891 50.1174693 20.9977525 50.1174693"></polygon>
            <polygon id="Rectangle-path" fill="#183651" points="20.9977525 58.6355228 74.2846891 58.6355228 74.2846891 62.5974198 20.9977525 62.5974198"></polygon>
            <polygon id="Rectangle-path" fill="#183651" points="20.9977525 71.1154733 25.1578198 71.1154733 25.1578198 75.0773703 20.9977525 75.0773703"></polygon>
            <polygon id="Rectangle-path" fill="#183651" points="31.2985842 71.1154733 35.4586515 71.1154733 35.4586515 75.0773703 31.2985842 75.0773703"></polygon>
            <polygon id="Rectangle-path" fill="#183651" points="41.5994158 71.1154733 45.7594832 71.1154733 45.7594832 75.0773703 41.5994158 75.0773703"></polygon>
            <polygon id="Shape" fill="#2EA0DA" points="104.791095 44.9670535 104.791095 107.762644 114.695838 124.798499 124.798499 107.762644 124.798499 44.9670535"></polygon>
            <path d="M114.695838,126.779448 C113.903408,126.779448 113.309149,126.383358 112.913059,125.789099 L102.810398,108.752992 C102.612228,108.356903 102.612228,108.158733 102.612228,107.762644 L102.612228,44.9670535 C102.612228,43.7785347 103.404657,42.986105 104.593176,42.986105 L124.60058,42.986105 C125.789099,42.986105 126.581529,43.7785347 126.581529,44.9670535 L126.581529,107.762392 C126.581529,108.158481 126.581529,108.554822 126.383358,108.752741 L116.478616,125.788848 C116.082527,126.383358 115.488267,126.779448 114.695838,126.779448 Z M106.772044,107.168384 L114.893756,120.836853 L123.015469,107.168384 L123.015469,46.948002 L106.969962,46.948002 L106.969962,107.168133 L106.772044,107.168133 L106.772044,107.168384 Z" id="Shape" fill="#183651"></path>
            <polygon id="Shape" fill="#FFFFFF" points="110.733941 106.177784 110.733941 50.909899 118.855653 50.909899 118.855653 106.177784 114.695838 113.110978"></polygon>
            <path d="M120.440513,26.7424277 L109.149333,26.7424277 C106.772295,26.7424277 104.791347,28.7233762 104.791347,31.1004139 L104.791347,44.966802 L124.79875,44.966802 L124.79875,31.1004139 C124.798499,28.5254574 122.81755,26.7424277 120.440513,26.7424277 Z" id="Shape" fill="#F06151"></path>
            <path d="M124.798499,46.948002 L104.791095,46.948002 C103.602576,46.948002 102.810147,46.1555723 102.810147,44.9670535 L102.810147,31.1006653 C102.810147,27.5351089 105.583525,24.7617307 109.149081,24.7617307 L120.440261,24.7617307 C124.005818,24.7617307 126.779196,27.5351089 126.779196,31.1006653 L126.779196,44.9670535 C126.779448,45.9576535 125.987018,46.948002 124.798499,46.948002 Z M106.772044,42.986105 L122.81755,42.986105 L122.81755,31.1004139 C122.81755,29.7137248 121.827202,28.7233762 120.440513,28.7233762 L109.149333,28.7233762 C107.762644,28.7233762 106.772295,29.7137248 106.772295,31.1004139 L106.772044,42.986105 L106.772044,42.986105 Z" id="Shape" fill="#183651"></path>
        </g>
    </g>
</svg>