<?xml version="1.0" encoding="UTF-8"?>
<svg width="127px" height="127px" viewBox="0 0 127 127" version="1.1" xmlns="http://www.w3.org/2000/svg" xmlns:xlink="http://www.w3.org/1999/xlink">
    <title>file备份</title>
    <g id="Page-1" stroke="none" stroke-width="1" fill="none" fill-rule="evenodd">
        <g id="file备份" transform="translate(0.000000, 0.000118)" fill-rule="nonzero">
            <path d="M87.5570693,62.8032679 L50.3156396,62.8032679 L50.3156396,55.4737332 C50.3156396,52.700355 48.1365208,50.5214877 45.3633941,50.5214877 L13.470299,50.5214877 C10.6969208,50.5214877 8.51805347,52.7006065 8.51805347,55.4737332 L8.51805347,109.5531 C8.51805347,112.326478 10.6971723,114.505345 13.470299,114.505345 L87.5570693,114.505345 C90.3304475,114.505345 92.5093149,112.326226 92.5093149,109.5531 L92.5093149,67.5575946 C92.311396,64.9823867 90.1322772,62.8032679 87.5570693,62.8032679 Z" id="Shape" fill="#FFFFFF"></path>
            <path d="M87.5570693,116.288375 L13.470299,116.288375 C9.70657228,116.288375 6.53710495,113.118907 6.53710495,109.355181 L6.53710495,55.2758144 C6.53710495,51.5120877 9.70657228,48.3426204 13.470299,48.3426204 L45.5613129,48.3426204 C49.3250396,48.3426204 52.4945069,51.5120877 52.4945069,55.2758144 L52.4945069,60.6244006 L87.7549881,60.6244006 C91.5187149,60.6244006 94.6881822,63.7938679 94.6881822,67.5575946 L94.6881822,109.355181 C94.2923446,113.118907 91.320796,116.288375 87.5570693,116.288375 Z M13.470299,52.5024362 C11.8854396,52.5024362 10.499002,53.8891253 10.499002,55.4737332 L10.499002,109.5531 C10.499002,111.137959 11.8856911,112.524397 13.470299,112.524397 L87.5570693,112.524397 C89.1419287,112.524397 90.5283663,111.137707 90.5283663,109.5531 L90.5283663,67.5575946 C90.5283663,65.9727352 89.1416772,64.5862976 87.5570693,64.5862976 L50.3156396,64.5862976 C49.1271208,64.5862976 48.3346911,63.7938679 48.3346911,62.6053491 L48.3346911,55.2758144 C48.3346911,53.690955 46.948002,52.3045174 45.3633941,52.3045174 L13.470299,52.3045174 L13.470299,52.5024362 Z" id="Shape" fill="#183651"></path>
            <path d="M87.5570693,73.3022699 L43.7785347,73.3022699 L43.7785347,65.9727352 C43.7785347,63.199357 41.5994158,61.0204897 38.8262891,61.0204897 L6.93319406,61.0204897 C4.15981584,61.0204897 1.98094851,63.1996085 1.98094851,65.9727352 L1.98094851,119.853931 C1.98094851,122.627309 4.16006733,124.806177 6.93319406,124.806177 L87.5570693,124.806177 C90.3304475,124.806177 92.5093149,122.627058 92.5093149,119.853931 L92.5093149,78.0565966 C92.311396,75.4813887 90.1322772,73.3022699 87.5570693,73.3022699 Z" id="Shape" fill="#FFFFFF"></path>
            <path d="M87.5570693,126.787377 L6.93319406,126.787377 C3.16946733,126.787377 0,123.617909 0,119.854183 L0,65.7748164 C0,62.0110897 3.16946733,58.8416223 6.93319406,58.8416223 L39.0242079,58.8416223 C42.7879347,58.8416223 45.957402,62.0110897 45.957402,65.7748164 L45.957402,71.1234025 L87.7549881,71.1234025 C91.5187149,71.1234025 94.6881822,74.2928699 94.6881822,78.0565966 L94.6881822,119.854183 C94.2923446,123.617909 91.320796,126.787377 87.5570693,126.787377 Z M6.93319406,63.0014382 C5.34833465,63.0014382 3.96189703,64.3881273 3.96189703,65.9727352 L3.96189703,119.853931 C3.96189703,121.438791 5.34858614,122.825228 6.93319406,122.825228 L87.5570693,122.825228 C89.1419287,122.825228 90.5283663,121.438539 90.5283663,119.853931 L90.5283663,78.0565966 C90.5283663,76.4717372 89.1416772,75.0852996 87.5570693,75.0852996 L43.7785347,75.0852996 C42.5900158,75.0852996 41.7975861,74.2928699 41.7975861,73.1043511 L41.7975861,65.7748164 C41.7975861,64.189957 40.410897,62.8035194 38.8262891,62.8035194 L6.93319406,62.8035194 L6.93319406,63.0014382 Z" id="Shape" fill="#183651"></path>
            <path d="M80.425705,81.2260639 L35.8547406,81.2260639 L35.8547406,72.9061808 C35.8547406,70.7270619 34.0719624,68.9442837 31.8928436,68.9442837 L13.8663881,68.9442837 C11.6872693,68.9442837 9.90449109,70.7270619 9.90449109,72.9061808 L9.90449109,112.920989 C9.90449109,115.100107 11.6872693,116.882886 13.8663881,116.882886 L80.425705,116.882886 C82.6048238,116.882886 84.387602,115.100107 84.387602,112.920989 L84.387602,85.187961 C84.387602,83.0088421 82.6048238,81.2260639 80.425705,81.2260639 Z" id="Shape" fill="#FBBD5E"></path>
            <polygon id="Rectangle-path" fill="#FFFFFF" points="15.8473366 107.770573 35.2604812 107.770573 35.2604812 110.94004 15.8473366 110.94004"></polygon>
            <polygon id="Rectangle-path" fill="#FFFFFF" points="15.8473366 101.431387 35.2604812 101.431387 35.2604812 104.600854 15.8473366 104.600854"></polygon>
            <path d="M103.008317,1.98887778 L65.7668871,1.98887778 C62.3992495,1.98887778 59.8240416,4.5640857 59.8240416,7.93172333 L59.8240416,83.8012718 C59.8240416,87.1689095 62.3992495,89.7441174 65.7668871,89.7441174 L118.855905,89.7441174 C122.223543,89.7441174 124.79875,87.1689095 124.79875,83.8012718 L124.79875,23.77906 L103.008317,1.98887778 Z" id="Shape" fill="#E1E6E7"></path>
            <path d="M118.855653,91.7248144 L65.7668871,91.7248144 C61.408901,91.7248144 57.8430931,88.159258 57.8430931,83.8010204 L57.8430931,7.93172333 C57.8430931,3.57373719 61.4086495,0.00792926876 65.7668871,0.00792926876 L103.008317,0.00792926876 C103.602576,0.00792926876 103.998665,0.206099566 104.395006,0.602188675 L126.185188,22.3923709 C126.581277,22.78846 126.779448,23.1848006 126.779448,23.77906 L126.779448,83.8012718 C126.779448,88.159258 123.213891,91.7248144 118.855653,91.7248144 Z M65.7668871,3.9698263 C63.5877683,3.9698263 61.8049901,5.75260452 61.8049901,7.93172333 L61.8049901,83.8012718 C61.8049901,85.9803907 63.5877683,87.7631689 65.7668871,87.7631689 L118.855905,87.7631689 C121.035024,87.7631689 122.817802,85.9803907 122.817802,83.8012718 L122.817802,24.5714897 L102.216139,3.9698263 L65.7668871,3.9698263 Z" id="Shape" fill="#183651"></path>
            <polygon id="Shape" fill="#FFFFFF" points="67.7478356 81.8203233 67.7478356 9.91267184 103.008317 9.91267184 116.874705 23.77906 116.874705 81.8203233"></polygon>
            <path d="M108.951162,23.77906 L124.798499,23.77906 L103.008317,1.98887778 L103.008317,17.8362144 C103.008317,21.203852 105.781695,23.77906 108.951162,23.77906 Z" id="Shape" fill="#F06151"></path>
            <path d="M124.798499,25.7600085 L108.951162,25.7600085 C104.593176,25.7600085 101.027368,22.194452 101.027368,17.8362144 L101.027368,1.98887778 C101.027368,1.19644808 101.423457,0.404018378 102.215887,0.206099566 C103.008317,-0.189989543 103.800747,0.00792926876 104.395006,0.602188675 L126.185188,22.3923709 C126.779448,22.9866303 126.977618,23.77906 126.581277,24.5714897 C126.383358,25.3639194 125.590929,25.7600085 124.798499,25.7600085 Z M104.989265,6.74295303 L104.989265,17.8362144 C104.989265,20.0153332 106.772044,21.7981114 108.951162,21.7981114 L120.044424,21.7981114 L104.989265,6.74295303 Z" id="Shape" fill="#183651"></path>
            <polygon id="Rectangle-path" fill="#183651" points="85.7742911 34.0798916 89.7361881 34.0798916 89.7361881 38.0417887 85.7742911 38.0417887"></polygon>
            <polygon id="Rectangle-path" fill="#183651" points="97.0654713 34.0798916 101.027368 34.0798916 101.027368 38.0417887 97.0654713 38.0417887"></polygon>
            <polygon id="Rectangle-path" fill="#183651" points="108.158733 34.0798916 112.12063 34.0798916 112.12063 38.0417887 108.158733 38.0417887"></polygon>
            <polygon id="Rectangle-path" fill="#183651" points="85.7742911 45.3710718 112.12063 45.3710718 112.12063 49.3329689 85.7742911 49.3329689"></polygon>
            <polygon id="Rectangle-path" fill="#183651" points="85.7742911 56.6625035 112.12063 56.6625035 112.12063 60.6244006 85.7742911 60.6244006"></polygon>
            <polygon id="Rectangle-path" fill="#183651" points="85.7742911 67.7557649 112.12063 67.7557649 112.12063 71.7176619 85.7742911 71.7176619"></polygon>
        </g>
    </g>
</svg>