<?xml version="1.0" encoding="UTF-8"?>
<svg width="102px" height="127px" viewBox="0 0 102 127" version="1.1" xmlns="http://www.w3.org/2000/svg" xmlns:xlink="http://www.w3.org/1999/xlink">
    <title>development</title>
    <g id="Page-1" stroke="none" stroke-width="1" fill="none" fill-rule="evenodd">
        <g id="development" transform="translate(0.310232, 0.000000)" fill-rule="nonzero">
            <polygon id="Rectangle-path" fill="#183651" transform="translate(18.065491, 106.348702) rotate(-147.180777) translate(-18.065491, -106.348702) " points="16.0845067 104.367718 20.0464754 104.367718 20.0464754 108.329687 16.0845067 108.329687"></polygon>
            <polygon id="Rectangle-path" fill="#183651" transform="translate(26.372026, 111.719816) rotate(-147.180777) translate(-26.372026, -111.719816) " points="24.3910421 109.738831 28.3530107 109.738831 28.3530107 113.7008 24.3910421 113.7008"></polygon>
            <polygon id="Rectangle-path" fill="#183651" transform="translate(34.676606, 117.090963) rotate(-147.180777) translate(-34.676606, -117.090963) " points="32.6956217 115.109979 36.6575903 115.109979 36.6575903 119.071948 32.6956217 119.071948"></polygon>
            <polygon id="Rectangle-path" fill="#183651" transform="translate(90.144369, 106.452893) rotate(-122.814408) translate(-90.144369, -106.452893) " points="88.1636176 104.472141 92.1251201 104.472141 92.1251201 108.433644 88.1636176 108.433644"></polygon>
            <polygon id="Rectangle-path" fill="#183651" transform="translate(81.821613, 111.758402) rotate(-122.819223) translate(-81.821613, -111.758402) " points="79.8406285 109.777418 83.8025971 109.777418 83.8025971 113.739386 79.8406285 113.739386"></polygon>
            <polygon id="Rectangle-path" fill="#183651" transform="translate(73.519554, 117.062252) rotate(-122.814408) translate(-73.519554, -117.062252) " points="71.5388028 115.081501 75.5003053 115.081501 75.5003053 119.043004 71.5388028 119.043004"></polygon>
            <path d="M70.3230436,24.7617307 L64.7765386,24.7617307 L64.7765386,93.4999149 L70.3230436,93.4999149 L71.3133921,85.378202 C73.8886,84.7839426 76.4638079,83.5954238 78.6429267,82.2087347 L85.1800317,87.3591505 L92.9056554,79.6335267 L87.7552396,73.0964218 C89.1419287,70.917303 90.1322772,68.342095 90.9247069,65.7668871 L99.0464198,64.7765386 L99.0464198,53.6832772 L90.9247069,52.6929287 C90.3304475,50.1177208 89.1419287,47.5425129 87.7552396,45.3633941 L92.9056554,38.8262891 L85.1800317,31.1006653 L78.6429267,36.2510812 C76.4638079,34.8643921 73.8886,33.8740436 71.3133921,33.0816139 L70.3230436,24.7617307 Z" id="Shape" fill="#2CA0DA"></path>
            <path d="M64.7765386,95.4808634 C64.1822792,95.4808634 63.7861901,95.2826931 63.3898495,94.886604 C62.9937604,94.4905149 62.7955901,94.0941743 62.7955901,93.4999149 L62.7955901,24.7617307 C62.7955901,23.5732119 63.5880198,22.7807822 64.7765386,22.7807822 L70.3230436,22.7807822 C71.3133921,22.7807822 72.1058218,23.5732119 72.3039921,24.5635604 L73.0964218,31.2988356 C75.0773703,31.893095 76.8601485,32.6855248 78.4450079,33.4779545 L83.7935941,29.3178871 C84.5860238,28.7236277 85.7745426,28.7236277 86.368802,29.5160574 L94.0944257,37.2416812 C94.8868554,38.0341109 94.8868554,39.0244594 94.292596,39.8168891 L90.1325287,45.1654752 C91.1228772,46.9482535 91.9153069,48.7310317 92.3116475,50.5140614 L99.2448416,51.3064911 C100.23519,51.5046614 101.02762,52.2968396 101.02762,53.2874396 L101.02762,64.380198 C101.02762,65.3705465 100.23519,66.1629762 99.2448416,66.3611465 L92.3116475,67.1535762 C91.7173881,69.1345248 90.9249584,70.917303 90.1325287,72.5021624 L94.292596,77.8507485 C94.8868554,78.6431782 94.8868554,79.831697 94.0944257,80.4259564 L86.368802,88.1515802 C85.5763723,88.9440099 84.5860238,88.9440099 83.7935941,88.3497505 L78.4450079,84.1896832 C76.6622297,85.1800317 74.8794515,85.9724614 73.0964218,86.368802 L72.3039921,93.1040772 C72.1058218,94.0944257 71.3136436,94.8868554 70.3230436,94.8868554 L64.7765386,95.4808634 Z M66.7574871,26.7421762 L66.7574871,91.5187149 L68.5402653,91.5187149 L69.332695,85.1797802 C69.5308653,84.3873505 69.9269545,83.5949208 70.9175545,83.397002 C73.2945921,82.8027426 75.6718812,81.8121426 77.8507485,80.6236238 C78.6431782,80.2275347 79.4356079,80.2275347 80.0298673,80.8217941 L85.1802832,84.7836911 L90.5288693,79.435105 L86.5669723,74.2846891 C85.9727129,73.6904297 85.9727129,72.6998297 86.368802,72.1055703 C87.7554911,69.9264515 88.5479208,67.7475842 89.1421802,65.1723762 C89.3403505,64.3799465 89.9346099,63.7856871 90.7270396,63.5875168 L97.0659743,62.7950871 L97.0659743,55.2676337 L90.7270396,54.6733743 C89.9346099,54.475204 89.1421802,54.0791149 89.1421802,53.0885149 C88.5479208,50.7114772 87.5573208,48.3341881 86.368802,46.1553208 C85.9727129,45.3628911 85.9727129,44.5704614 86.5669723,43.976202 L90.5288693,38.8257861 L85.1802832,33.4772 L80.0298673,37.439097 C79.4356079,38.0333564 78.4450079,38.0333564 77.8507485,37.6372673 C75.6716297,36.2505782 73.4927624,35.4581485 70.9175545,34.8638891 C70.1251248,34.6657188 69.5308653,34.0714594 69.332695,33.0811109 L68.5402653,26.7421762 L66.7574871,26.7421762 L66.7574871,26.7421762 Z" id="Shape" fill="#183651"></path>
            <path d="M76.6619782,59.2297822 C76.6619782,52.6926772 71.3133921,47.3440911 64.7762871,47.3440911 L64.7762871,70.9170515 C71.3136436,70.917303 76.6619782,65.7668871 76.6619782,59.2297822 Z" id="Shape" fill="#FFFFFF"></path>
            <path d="M64.7765386,72.8982515 C63.5880198,72.8982515 62.7955901,72.1058218 62.7955901,70.917303 L62.7955901,47.3443426 C62.7955901,46.1558238 63.5880198,45.3633941 64.7765386,45.3633941 C72.3039921,45.3633941 78.6429267,51.5041584 78.6429267,59.2297822 C78.6429267,66.7572356 72.5021624,72.8982515 64.7765386,72.8982515 Z M66.7574871,49.5232099 L66.7574871,68.7381842 C71.3136436,67.7478356 74.6812812,63.7859386 74.6812812,59.0316119 C74.6812812,54.4754554 71.3136436,50.5138099 66.7574871,49.5232099 Z" id="Shape" fill="#183651"></path>
            <path d="M36.2510812,100.03702 L42.7881861,100.03702 L42.7881861,18.2246257 L36.2510812,18.2246257 L35.0625624,27.931198 C31.893095,28.7236277 28.921798,29.9121465 26.1484198,31.6949248 L18.422796,25.7520792 L9.11231287,35.0625624 L15.0551584,42.7881861 C13.470299,45.5615644 12.0838614,48.5328614 11.2914317,51.7023287 L1.58485941,52.8908475 L1.58485941,65.9650574 L11.2914317,67.1535762 C12.0838614,70.3230436 13.2723802,73.2943406 15.0551584,76.0677188 L9.11231287,83.7933426 L18.422796,93.1038257 L26.1484198,87.1609802 C28.921798,88.7458396 31.893095,90.1322772 35.0625624,90.7265366 L36.2510812,100.03702 Z" id="Shape" fill="#FBBD5E"></path>
            <path d="M42.7881861,102.017968 L36.2510812,102.017968 C35.2607327,102.017968 34.468303,101.225539 34.2701327,100.23519 L33.2797842,91.9153069 C30.9027465,91.1228772 28.5254574,90.3304475 26.3465901,89.1419287 L19.6113149,94.2923446 C18.8188851,94.886604 17.6303663,94.886604 17.0361069,94.0941743 L7.72562376,84.7836911 C7.13136436,84.1894317 7.13136436,83.0009129 7.72562376,82.2084832 L12.8760396,75.4732079 C11.6875208,73.2940891 10.6969208,70.9170515 10.1026614,68.5400139 L1.78277822,67.5496653 C0.792429703,67.351495 0,66.5593168 0,65.5687168 L0,52.4945069 C0,51.5041584 0.792429703,50.7117287 1.78277822,50.5135584 L10.1026614,49.5232099 C10.8950911,47.1461723 11.6875208,44.7688832 12.8760396,42.5900158 L7.72562376,35.8547406 C7.13136436,35.0623109 7.13136436,33.8737921 7.92379406,33.2795327 L17.2342772,23.9690495 C18.0267069,23.1766198 19.0170554,23.1766198 19.8094851,23.7708792 L26.5447604,28.921295 C28.7238792,27.7327762 31.1009168,26.7421762 33.4779545,26.1479168 L34.468303,17.8280337 C34.6664733,16.8376851 35.4586515,16.0452554 36.4492515,16.0452554 L42.9863564,16.0452554 C43.5806158,16.0452554 43.976705,16.2434257 44.3730455,16.6395149 C44.7691347,17.035604 44.967305,17.4319446 44.967305,18.026204 L44.967305,100.036768 C44.7691347,101.225539 43.976705,102.017968 42.7881861,102.017968 Z M38.0338594,98.0560713 L40.8072376,98.0560713 L40.8072376,20.2055743 L38.0338594,20.2055743 L37.0435109,28.1293683 C36.8453406,28.921798 36.4492515,29.7142277 35.4586515,29.9121465 C32.4873545,30.7045762 29.7139762,31.6949248 27.1387683,33.2797842 C26.3463386,33.6758733 25.5539089,33.6758733 24.9596495,33.0816139 L18.6207149,28.1293683 L11.8854396,34.8646436 L16.8376851,41.2035782 C17.4319446,41.7978376 17.4319446,42.7884376 17.0358554,43.382697 C15.450996,45.957905 14.2624772,48.7312832 13.6682178,51.7025802 C13.4700475,52.4950099 12.8757881,53.0892693 11.8854396,53.2874396 L3.96164554,54.2777881 L3.96164554,63.9843604 L11.8854396,64.9747089 C12.6778693,65.1728792 13.470299,65.5689683 13.6682178,66.5595683 C14.4606475,69.5308653 15.450996,72.3042436 17.0358554,74.8794515 C17.4319446,75.6718812 17.4319446,76.4643109 16.8376851,77.0585703 L11.8854396,83.397505 L18.6207149,90.1327802 L24.9596495,85.1805347 C25.5539089,84.5862752 26.5445089,84.5862752 27.1387683,84.9823644 C29.7139762,86.5672238 32.4873545,87.7557426 35.4586515,88.350002 C36.2510812,88.5481723 36.8453406,89.1424317 37.0435109,90.1327802 L38.0338594,98.0560713 Z" id="Shape" fill="#183651"></path>
            <path d="M28.7236277,59.2297822 C28.7236277,66.9554059 35.0625624,73.2943406 42.7881861,73.2943406 L42.7881861,45.1652238 C35.0625624,45.1652238 28.7236277,51.5041584 28.7236277,59.2297822 Z" id="Shape" fill="#FFFFFF"></path>
            <path d="M42.7881861,75.2752891 C33.8740436,75.2752891 26.7426792,68.1439248 26.7426792,59.2297822 C26.7426792,50.3156396 33.8740436,43.1842752 42.7881861,43.1842752 C43.976705,43.1842752 44.7691347,43.976705 44.7691347,45.1652238 L44.7691347,73.2943406 C44.7691347,74.2849406 43.976705,75.2752891 42.7881861,75.2752891 Z M40.8072376,47.3440911 C35.0625624,48.3344396 30.7045762,53.2869366 30.7045762,59.2297822 C30.7045762,65.1726277 35.0625624,70.1248733 40.8072376,71.1154733 L40.8072376,47.3440911 Z" id="Shape" fill="#183651"></path>
            <polygon id="Rectangle-path" fill="#4FBF9F" points="42.7881861 21.9883525 64.7765386 21.9883525 64.7765386 106.177784 42.7881861 106.177784"></polygon>
            <path d="M64.7765386,108.158733 L42.7881861,108.158733 C41.5996673,108.158733 40.8072376,107.366303 40.8072376,106.177784 L40.8072376,21.9883525 C40.8072376,20.7998337 41.5996673,20.007404 42.7881861,20.007404 L64.7765386,20.007404 C65.9650574,20.007404 66.7574871,20.7998337 66.7574871,21.9883525 L66.7574871,106.177784 C66.7574871,107.168384 65.9650574,108.158733 64.7765386,108.158733 Z M44.7691347,104.196836 L62.7955901,104.196836 L62.7955901,23.969301 L44.7691347,23.969301 L44.7691347,104.196836 L44.7691347,104.196836 Z" id="Shape" fill="#183651"></path>
            <polygon id="Rectangle-path" fill="#FFFFFF" points="50.1177208 29.1197168 57.6451743 29.1197168 57.6451743 98.848501 50.1177208 98.848501"></polygon>
            <path d="M60.0222119,1.98094851 L47.5422614,1.98094851 C44.9670535,1.98094851 42.7879347,4.16006733 42.7879347,6.73527525 L42.7879347,21.9883525 L64.7762871,21.9883525 L64.7762871,6.73527525 C64.7765386,4.16006733 62.5974198,1.98094851 60.0222119,1.98094851 Z" id="Shape" fill="#E1E6E7"></path>
            <path d="M64.7765386,23.969301 L42.7881861,23.969301 C41.5996673,23.969301 40.8072376,23.1768713 40.8072376,21.9883525 L40.8072376,6.73527525 C40.8072376,2.97129703 43.7787861,0 47.5425129,0 L60.0224634,0 C63.7861901,0 66.7577386,2.97129703 66.7577386,6.73527525 L66.7577386,21.9883525 C66.7577386,22.978701 65.9650574,23.969301 64.7765386,23.969301 Z M44.7691347,20.007404 L62.7955901,20.007404 L62.7955901,6.73527525 C62.7955901,5.15041584 61.6070713,3.96189703 60.0222119,3.96189703 L47.5422614,3.96189703 C45.957402,3.96189703 44.7688832,5.15041584 44.7688832,6.73527525 L44.7691347,20.007404 L44.7691347,20.007404 Z" id="Shape" fill="#183651"></path>
            <polygon id="Shape" fill="#FFFFFF" points="53.8814475 124.798499 64.7765386 106.177784 42.7881861 106.177784"></polygon>
            <path d="M53.8814475,126.779448 C53.0890178,126.779448 52.4947584,126.383358 52.0986693,125.789099 L41.2035782,107.168384 C40.8074891,106.574125 40.8074891,105.781695 41.2035782,105.187436 C41.5996673,104.593176 42.1939267,104.197087 42.9863564,104.197087 L64.9747089,104.197087 C65.7671386,104.197087 66.361398,104.593176 66.7574871,105.187436 C67.1535762,105.781695 67.1535762,106.574125 66.7574871,107.168384 L55.4663069,125.789099 C55.2681366,126.383358 54.4757069,126.779448 53.8814475,126.779448 Z M46.3539941,108.158733 L53.8814475,121.034772 L61.408901,108.158733 L46.3539941,108.158733 Z" id="Shape" fill="#183651"></path>
        </g>
    </g>
</svg>