<?xml version="1.0" encoding="UTF-8"?>
<svg width="127px" height="127px" viewBox="0 0 127 127" version="1.1" xmlns="http://www.w3.org/2000/svg" xmlns:xlink="http://www.w3.org/1999/xlink">
    <title>laptop-1备份</title>
    <g id="Page-1" stroke="none" stroke-width="1" fill="none" fill-rule="evenodd">
        <g id="laptop-1备份" transform="translate(0.067983, 0.000000)" fill-rule="nonzero">
            <polygon id="Shape" fill="#FFFFFF" points="13.4023156 92.5093149 113.241165 92.5093149 124.730516 124.798499 1.9129651 124.798499"></polygon>
            <path d="M124.730516,126.779448 L124.730516,126.779448 L1.9129651,126.779448 C1.31870569,126.779448 0.724446285,126.383358 0.328105691,125.987018 C-0.0679834178,125.590929 -0.0679834178,124.798499 0.130186879,124.20424 L11.6195374,91.9150554 C11.8177077,91.1226257 12.6098859,90.5283663 13.4023156,90.5283663 L113.241165,90.5283663 C114.033595,90.5283663 114.826025,91.1226257 115.023943,91.9150554 L126.315124,123.807899 C126.513294,124.006069 126.513294,124.402158 126.513294,124.798248 C126.711464,125.789099 125.919034,126.779448 124.730516,126.779448 Z M4.68634331,122.81755 L121.759219,122.81755 L111.854476,94.4902634 L14.7890047,94.4902634 L4.68634331,122.81755 Z" id="Shape" fill="#183651"></path>
            <polygon id="Shape" fill="#E1E6E7" points="111.260217 108.554822 108.090749 98.4521604 18.5527314 98.4521604 15.3832641 108.554822"></polygon>
            <polygon id="Shape" fill="#E1E6E7" points="53.4171235 111.922459 51.436175 118.855653 75.2073057 118.855653 73.0281869 111.922459"></polygon>
            <path d="M109.279268,30.5064059 L17.3642126,30.5064059 C15.1850938,30.5064059 13.4023156,32.2891842 13.4023156,34.468303 L13.4023156,92.5095663 L113.241165,92.5095663 L113.241165,34.4680515 C113.241165,32.2891842 111.458387,30.5064059 109.279268,30.5064059 Z" id="Shape" fill="#2CA0DA"></path>
            <path d="M113.241165,94.4902634 L13.4023156,94.4902634 C12.2137968,94.4902634 11.4213671,93.6978337 11.4213671,92.5093149 L11.4213671,34.4680515 C11.4213671,31.1004139 13.996575,28.5252059 17.3642126,28.5252059 L109.279268,28.5252059 C112.646906,28.5252059 115.222114,31.1004139 115.222114,34.4680515 L115.222114,92.5093149 C115.222114,93.4999149 114.231514,94.4902634 113.241165,94.4902634 Z M15.3832641,90.5283663 L111.260217,90.5283663 L111.260217,34.4680515 C111.260217,33.2795327 110.467787,32.487103 109.279268,32.487103 L17.3642126,32.487103 C16.1756938,32.487103 15.3832641,33.2795327 15.3832641,34.4680515 L15.3832641,90.5283663 Z" id="Shape" fill="#183651"></path>
            <polygon id="Rectangle-path" fill="#FFFFFF" points="21.3261097 38.4299485 105.317623 38.4299485 105.317623 84.5855208 21.3261097 84.5855208"></polygon>
            <path d="M47.2761077,1.98094851 C39.5504839,1.98094851 33.4097196,8.12171287 33.4097196,15.8473366 L33.4097196,39.8166376 L42.5220324,39.8166376 L42.5220324,55.4660554 L67.0855928,39.8166376 L76.5939948,39.8166376 C84.3196186,39.8166376 90.4603829,33.6758733 90.4603829,25.9502495 L90.4603829,1.98094851 L47.2761077,1.98094851 Z" id="Shape" fill="#4FBF9F"></path>
            <path d="M41.5314324,57.2488337 C40.937173,56.8527446 40.5410839,56.2584851 40.5410839,55.4660554 L40.5410839,41.7975861 L33.4097196,41.7975861 C32.2212007,41.7975861 31.428771,41.0051564 31.428771,39.8166376 L31.428771,15.8473366 C31.428771,7.13136436 38.5601354,0 47.2761077,0 L90.4603829,0 C91.6489017,0 92.4413314,0.792429703 92.4413314,1.98094851 L92.4413314,25.9502495 C92.4413314,34.6662218 85.3099671,41.7975861 76.5939948,41.7975861 L67.6798522,41.7975861 L43.5126324,57.0506634 C42.9181215,57.447004 42.1256918,57.6449228 41.5314324,57.2488337 Z M35.1924978,37.8356891 L42.5220324,37.8356891 C43.7105512,37.8356891 44.5029809,38.6281188 44.5029809,39.8166376 L44.5029809,51.7023287 L66.0949928,38.0338594 C66.4910819,37.8356891 66.6892522,37.6377703 67.0853413,37.6377703 L76.5937433,37.6377703 C83.1308483,37.6377703 88.4794344,32.2891842 88.4794344,25.7520792 L88.4794344,3.96189703 L47.2761077,3.96189703 C40.7390027,3.96189703 35.3904166,9.31048317 35.3904166,15.8475881 L35.3904166,37.8359406 L35.1924978,37.8359406 L35.1924978,37.8356891 Z" id="Shape" fill="#183651"></path>
            <path d="M50.4458265,31.8928436 L41.3335136,31.8928436 L41.3335136,15.8473366 C41.3335136,12.479699 44.1068918,9.90449109 47.2763592,9.90449109 L82.5368403,9.90449109 L82.5368403,25.949998 C82.5368403,29.3176356 79.7634621,31.8928436 76.5939948,31.8928436 L64.906474,31.8928436 L50.4458265,41.0051564 L50.4458265,31.8928436 Z" id="Shape" fill="#FFFFFF"></path>
            <polygon id="Rectangle-path" fill="#183651" points="48.6627968 19.6113149 52.6246938 19.6113149 52.6246938 23.5732119 48.6627968 23.5732119"></polygon>
            <polygon id="Rectangle-path" fill="#183651" points="59.9542285 19.6113149 63.9161255 19.6113149 63.9161255 23.5732119 59.9542285 23.5732119"></polygon>
            <polygon id="Rectangle-path" fill="#183651" points="71.0474898 19.6113149 75.0093869 19.6113149 75.0093869 23.5732119 71.0474898 23.5732119"></polygon>
            <path d="M98.1860067,69.3324436 L87.4890859,63.5877683 L76.7921651,69.3324436 C74.8112166,70.3227921 73.6226978,72.5019109 73.6226978,74.8789485 L73.6226978,80.6236238 L101.355725,80.6236238 L101.355725,74.8789485 C101.355725,72.5019109 100.166955,70.3230436 98.1860067,69.3324436 Z" id="Shape" fill="#FBBD5E"></path>
            <path d="M94.4222799,57.2488337 C94.4222799,62.0031604 91.2528126,67.1535762 87.4890859,67.1535762 C83.7253592,67.1535762 80.5558918,61.8049901 80.5558918,57.2488337 C80.5558918,52.6926772 83.7253592,50.1174693 87.4890859,50.1174693 C91.2528126,50.1174693 94.4222799,52.4945069 94.4222799,57.2488337 Z" id="Shape" fill="#173651"></path>
            <polygon id="Rectangle-path" fill="#183651" points="34.7964087 73.0961703 38.7583057 73.0961703 38.7583057 77.0580673 34.7964087 77.0580673"></polygon>
            <polygon id="Rectangle-path" fill="#183651" points="45.6914998 73.0961703 49.6533968 73.0961703 49.6533968 77.0580673 45.6914998 77.0580673"></polygon>
            <polygon id="Rectangle-path" fill="#183651" points="56.7847611 73.0961703 60.7466582 73.0961703 60.7466582 77.0580673 56.7847611 77.0580673"></polygon>
        </g>
    </g>
</svg>